<?xml version="1.0" standalone="no"?>
<!DOCTYPE svg PUBLIC "-//W3C//DTD SVG 20010904//EN"
 "http://www.w3.org/TR/2001/REC-SVG-20010904/DTD/svg10.dtd">
<svg version="1.0" xmlns="http://www.w3.org/2000/svg"
 width="256.000000pt" height="256.000000pt" viewBox="0 0 256.000000 256.000000"
 preserveAspectRatio="xMidYMid meet">

<g transform="translate(0.000000,256.000000) scale(0.100000,-0.100000)"
fill="#FFFFFF" stroke="none">
<path d="M1140 2544 c-177 -38 -348 -171 -429 -334 -55 -114 -71 -193 -71
-370 0 -177 16 -256 71 -370 80 -162 252 -296 430 -335 60 -12 43 -13 -251
-14 -362 -1 -409 -8 -540 -72 -117 -58 -221 -162 -279 -279 -63 -129 -71 -182
-71 -497 l0 -273 1280 0 1280 0 0 273 c0 199 -4 291 -15 342 -37 179 -171 353
-335 434 -131 64 -178 71 -540 72 -295 1 -311 1 -250 15 177 38 346 169 428
334 56 113 72 192 72 370 0 178 -16 257 -72 370 -129 257 -422 396 -708 334z"/>
</g>
</svg>
