<?xml version="1.0" standalone="no"?>
<!DOCTYPE svg PUBLIC "-//W3C//DTD SVG 20010904//EN"
 "http://www.w3.org/TR/2001/REC-SVG-20010904/DTD/svg10.dtd">
<svg version="1.0" xmlns="http://www.w3.org/2000/svg"
 width="256.000000pt" height="256.000000pt" viewBox="0 0 256.000000 256.000000"
 preserveAspectRatio="xMidYMid meet">

<g transform="translate(0.000000,256.000000) scale(0.100000,-0.100000)"
fill="#FFFFFF" stroke="none">
<path d="M0 2430 l0 -129 130 -3 130 -3 225 -475 c124 -261 225 -480 225 -488
0 -7 -40 -81 -89 -165 -108 -184 -125 -244 -97 -340 19 -67 69 -127 130 -160
l41 -22 803 -3 802 -2 0 130 0 130 -749 0 c-648 0 -750 2 -754 15 -4 8 20 63
51 122 l57 108 510 5 c501 5 511 5 551 27 22 12 54 37 70 55 16 18 130 216
253 438 123 223 234 421 247 441 13 19 24 47 24 62 0 41 -25 94 -52 109 -18
10 -212 14 -997 18 l-974 5 -56 125 -57 125 -212 3 -212 2 0 -130z"/>
<path d="M682 497 c-43 -13 -118 -80 -141 -126 -81 -158 25 -350 204 -368 148
-15 275 101 275 251 0 145 -110 257 -250 255 -30 -1 -70 -6 -88 -12z"/>
<path d="M1962 497 c-43 -13 -118 -80 -141 -126 -81 -158 25 -350 204 -368
148 -15 275 101 275 251 0 145 -110 257 -250 255 -30 -1 -70 -6 -88 -12z"/>
</g>
</svg>
