<?xml version="1.0" standalone="no"?>
<!DOCTYPE svg PUBLIC "-//W3C//DTD SVG 20010904//EN"
 "http://www.w3.org/TR/2001/REC-SVG-20010904/DTD/svg10.dtd">
<svg version="1.0" xmlns="http://www.w3.org/2000/svg"
 width="497.000000pt" height="497.000000pt" viewBox="0 0 497.000000 497.000000"
 preserveAspectRatio="xMidYMid meet">

<g transform="translate(0.000000,497.000000) scale(0.100000,-0.100000)"
fill="#000000" stroke="none">
<path d="M2265 4200 c-130 -15 -127 -17 22 -19 346 -3 675 -82 988 -236 383
-189 702 -469 918 -807 l62 -97 138 0 139 -1 -23 38 c-151 249 -371 494 -592
661 -307 230 -640 372 -1034 442 -135 24 -481 34 -618 19z"/>
<path d="M1565 4022 c-71 -25 -135 -71 -256 -188 -114 -109 -119 -112 -250
-133 -128 -21 -284 -102 -354 -184 -49 -57 -58 -98 -46 -210 25 -221 115 -354
296 -438 47 -21 85 -45 85 -53 0 -36 85 -178 155 -258 70 -81 74 -88 53 -93
-13 -3 -79 -16 -148 -29 -143 -27 -235 -56 -300 -93 -54 -31 -120 -82 -120
-92 0 -4 69 7 153 24 83 18 195 36 248 39 270 19 665 -76 829 -199 l35 -26 3
27 c6 45 -110 197 -194 255 -51 35 -103 55 -198 75 -98 21 -160 58 -222 133
-67 80 -140 224 -161 317 -17 71 -17 72 -53 77 -59 8 -184 75 -249 134 -46 41
-71 75 -102 138 -23 46 -39 90 -36 98 3 8 26 17 55 21 48 6 112 39 119 62 3 8
-9 9 -42 3 -48 -9 -83 -1 -103 24 -11 13 -5 20 40 45 153 87 335 114 473 72
129 -40 131 -40 263 33 64 36 135 74 158 85 40 20 285 95 291 89 7 -8 -117
-177 -175 -238 -73 -79 -145 -130 -228 -164 l-59 -25 41 0 c161 -1 314 87 432
247 125 171 151 267 80 292 -45 16 -165 13 -233 -4 -88 -23 -155 -56 -271
-135 -57 -39 -114 -70 -127 -70 -13 0 -36 9 -51 21 -26 20 -26 21 -9 51 32 55
134 139 215 178 82 40 102 45 233 56 l80 6 -45 24 c-39 20 -59 23 -150 23 -74
0 -120 -5 -155 -17z"/>
<path d="M1153 3521 c-22 -4 -61 -20 -85 -37 l-43 -29 40 -2 c22 -2 79 -4 128
-5 l87 -3 0 28 c0 23 -7 31 -35 43 -19 7 -38 13 -42 13 -4 -1 -27 -5 -50 -8z"/>
<path d="M2535 3445 c-62 -10 -256 -74 -273 -90 -2 -2 70 -1 160 2 189 6 242
-3 388 -66 288 -124 607 -383 766 -622 38 -57 78 -123 88 -147 16 -36 23 -42
40 -37 48 13 155 17 206 6 73 -15 84 -23 76 -54 -9 -38 -100 -132 -166 -172
-31 -19 -63 -42 -70 -50 -11 -13 -6 -15 32 -15 139 0 323 103 378 211 56 108
-14 166 -250 209 -61 10 -119 24 -129 30 -11 5 -63 76 -117 157 -101 155 -168
228 -319 350 -149 120 -304 213 -424 254 -44 15 -279 53 -301 48 -3 -1 -41 -7
-85 -14z"/>
<path d="M4449 2868 l-24 -93 -80 -7 c-44 -4 -88 -9 -99 -10 -13 -2 6 -19 60
-52 44 -27 80 -50 82 -52 2 -1 -8 -45 -21 -98 l-25 -96 23 17 c13 10 48 37 79
61 l55 43 78 -45 c42 -25 79 -43 81 -42 1 2 -11 39 -28 82 -16 43 -30 82 -30
86 0 4 32 33 70 64 39 31 70 61 70 66 0 5 -3 7 -8 5 -4 -3 -47 -7 -95 -8 l-89
-3 -35 84 c-19 47 -36 86 -37 88 -2 1 -14 -39 -27 -90z"/>
<path d="M413 2850 c-52 -12 -82 -37 -123 -103 -22 -34 -38 -62 -37 -64 2 -1
41 4 87 12 119 19 381 38 468 34 39 -2 72 -1 72 3 0 12 -200 105 -252 117 -52
12 -166 13 -215 1z"/>
<path d="M2850 2195 c48 -127 179 -265 403 -426 221 -157 283 -183 438 -177
98 3 111 6 182 41 80 40 181 129 214 189 l18 33 7 -115 c10 -154 37 -211 157
-331 117 -116 201 -159 310 -159 59 0 83 5 110 21 l34 21 -58 24 c-204 82
-400 333 -500 637 l-32 100 -64 -59 c-166 -153 -241 -205 -343 -236 -103 -31
-146 -23 -331 64 -174 82 -257 139 -430 297 -60 56 -113 101 -117 101 -4 0 -3
-11 2 -25z"/>
<path d="M1155 2068 c-28 -43 -56 -78 -63 -78 -8 0 -50 9 -94 21 -44 11 -82
18 -84 17 -2 -2 24 -37 56 -77 34 -41 57 -78 53 -84 -3 -7 -24 -38 -45 -69
-60 -90 -60 -90 39 -53 l88 34 67 -72 66 -72 -5 96 -6 95 49 19 c27 10 69 27
94 38 l45 19 -95 27 -95 26 -10 95 -11 95 -49 -77z"/>
<path d="M1335 1598 c-66 -22 -122 -42 -124 -45 -7 -5 48 -51 174 -147 559
-423 1283 -567 1975 -391 139 35 449 149 437 161 -2 2 -44 -10 -92 -26 -101
-34 -275 -72 -415 -91 -122 -16 -428 -16 -550 0 -459 61 -876 241 -1207 520
-40 34 -74 61 -75 60 -2 0 -57 -19 -123 -41z"/>
<path d="M3983 1582 c-49 -73 -58 -110 -50 -196 9 -94 42 -172 96 -226 53 -53
104 -71 175 -63 l48 6 -33 26 c-19 14 -55 45 -81 69 -60 56 -83 127 -101 312
l-12 135 -42 -63z"/>
<path d="M3824 1126 c-29 -29 -34 -41 -34 -79 0 -80 70 -132 145 -107 49 16
75 53 75 107 0 38 -5 50 -34 79 -28 28 -42 34 -76 34 -34 0 -48 -6 -76 -34z
m144 -22 c50 -57 10 -144 -65 -144 -42 1 -63 13 -81 47 -50 93 75 177 146 97z"/>
<path d="M3860 1044 c0 -48 3 -65 13 -61 6 2 11 13 9 25 -4 31 16 37 29 8 7
-14 18 -27 25 -30 17 -6 17 -1 4 24 -7 13 -6 27 1 44 16 34 -3 56 -47 56 l-34
0 0 -66z m55 26 c0 -22 -29 -18 -33 3 -3 14 1 18 15 15 10 -2 18 -10 18 -18z"/>
</g>
</svg>
