<?xml version="1.0" standalone="no"?>
<!DOCTYPE svg PUBLIC "-//W3C//DTD SVG 20010904//EN"
 "http://www.w3.org/TR/2001/REC-SVG-20010904/DTD/svg10.dtd">
<svg version="1.0" xmlns="http://www.w3.org/2000/svg"
 width="225.000000pt" height="225.000000pt" viewBox="0 0 225.000000 225.000000"
 preserveAspectRatio="xMidYMid meet">

<g transform="translate(0.000000,225.000000) scale(0.100000,-0.100000)"
fill="#000000" stroke="none">
<path d="M913 2070 c-185 -43 -328 -123 -469 -264 -192 -192 -284 -410 -284
-674 0 -266 88 -487 268 -674 130 -135 273 -221 447 -268 113 -31 310 -38 429
-15 361 67 660 346 758 706 20 71 23 108 23 244 0 135 -4 173 -22 242 -47 169
-121 298 -246 429 -123 129 -275 220 -445 266 -112 30 -346 35 -459 8z m379
-64 c184 -36 322 -111 463 -251 112 -112 169 -201 216 -338 133 -389 -11 -811
-355 -1038 -166 -110 -335 -156 -536 -146 -241 12 -444 107 -613 287 -252 268
-310 672 -144 1005 119 240 362 426 627 480 88 18 252 18 342 1z"/>
<path d="M983 1899 c-36 -10 -73 -52 -73 -81 0 -27 26 -74 45 -82 21 -8 83 -8
113 1 22 5 23 9 17 52 -4 25 -8 47 -9 49 -2 1 -17 -1 -34 -4 -36 -7 -43 -29
-12 -37 34 -9 24 -37 -13 -37 -41 0 -57 15 -57 56 0 38 16 53 64 61 21 3 36
11 36 19 0 16 -29 17 -77 3z"/>
<path d="M1138 1825 c-3 -82 -2 -85 20 -85 21 0 22 4 22 85 0 77 -2 85 -19 85
-18 0 -20 -9 -23 -85z"/>
<path d="M1265 1888 c-9 -28 -45 -150 -45 -154 0 -2 8 -4 19 -4 14 0 22 12 31
48 19 70 26 70 38 -4 6 -36 12 -68 14 -69 2 -2 14 -5 27 -7 20 -3 25 4 41 54
31 101 32 105 11 111 -15 4 -21 -5 -31 -49 -7 -30 -17 -54 -21 -54 -4 0 -11
24 -14 53 -8 63 -13 72 -43 81 -14 5 -24 3 -27 -6z"/>
<path d="M805 1840 c-3 -5 9 -43 26 -84 29 -66 35 -74 51 -65 11 6 18 14 16
18 -58 138 -75 161 -93 131z"/>
<path d="M686 1775 c-15 -8 -38 -23 -51 -33 l-24 -19 52 -71 c45 -62 53 -70
66 -58 12 13 12 18 -3 41 -29 44 -4 59 44 25 25 -18 29 -18 40 -5 11 13 10 18
-6 30 -10 8 -27 17 -37 21 -10 3 -17 13 -16 22 4 49 -22 69 -65 47z m31 -41
c3 -8 -2 -23 -11 -32 -15 -15 -17 -15 -30 3 -12 17 -12 21 3 32 22 17 30 16
38 -3z"/>
<path d="M1472 1731 c-64 -42 -71 -50 -56 -61 11 -10 20 -11 32 -3 26 16 75
-15 69 -44 -4 -24 16 -49 31 -39 5 3 17 41 27 85 15 66 16 83 5 96 -19 22 -28
20 -108 -34z m73 -23 c-9 -42 -10 -43 -35 -25 l-21 15 27 21 c35 28 37 27 29
-11z"/>
<path d="M1639 1609 c-35 -28 -66 -52 -68 -54 -6 -7 63 -85 76 -85 18 0 17 7
-7 40 l-20 29 54 43 c46 38 52 47 41 61 -11 15 -19 12 -76 -34z"/>
<path d="M523 1626 c-40 -33 -49 -68 -27 -106 47 -78 152 -61 170 27 5 25 0
37 -23 62 -40 44 -81 50 -120 17z m81 -37 c38 -30 33 -73 -8 -77 -50 -6 -95
55 -64 86 18 18 42 15 72 -9z"/>
<path d="M996 1629 c-77 -18 -167 -70 -232 -134 -35 -34 -64 -68 -64 -73 0 -6
30 19 68 56 206 204 511 204 715 0 38 -38 71 -67 74 -64 3 2 -26 36 -64 74
-73 72 -157 121 -243 141 -54 13 -200 12 -254 0z"/>
<path d="M910 1511 c-8 -16 -5 -23 18 -40 23 -17 25 -22 12 -31 -8 -5 -23 -7
-32 -4 -10 3 -18 0 -18 -6 0 -7 14 -10 38 -8 29 2 38 8 40 25 2 14 -4 26 -17
33 -29 15 -26 30 4 30 14 0 25 5 25 10 0 19 -59 11 -70 -9z"/>
<path d="M1006 1493 c-4 -21 -9 -46 -12 -55 -3 -11 0 -18 9 -18 9 0 17 19 24
55 7 42 7 55 -3 55 -6 0 -15 -17 -18 -37z"/>
<path d="M1066 1518 c-19 -62 -23 -98 -11 -98 7 0 16 17 20 38 l8 37 15 -38
c21 -53 43 -45 57 21 10 43 10 52 -1 52 -8 0 -14 -10 -14 -22 0 -13 -4 -29 -9
-37 -6 -10 -12 -4 -21 23 -11 35 -37 49 -44 24z"/>
<path d="M1202 1514 c-24 -17 -30 -62 -10 -82 15 -15 68 -16 68 -1 0 5 -4 8
-9 5 -13 -9 -39 3 -45 20 -10 27 12 54 44 54 17 0 30 5 30 10 0 16 -53 12 -78
-6z"/>
<path d="M1306 1518 c-2 -7 -9 -32 -14 -55 l-10 -43 39 0 c21 0 39 5 39 10 0
6 -12 10 -26 10 -35 0 -26 23 12 31 l29 7 -27 1 c-40 2 -38 31 2 31 17 0 30 5
30 10 0 15 -70 12 -74 -2z"/>
<path d="M329 1298 c-17 -66 -17 -288 0 -345 l12 -43 784 0 c738 0 784 1 789
18 28 91 30 276 5 378 l-11 44 -783 0 -783 0 -13 -52z m211 -78 c0 -16 -7 -20
-35 -20 -28 0 -35 -4 -35 -20 0 -16 7 -20 35 -20 28 0 35 -4 35 -20 0 -16 -7
-20 -36 -20 -31 0 -35 -3 -32 -22 2 -19 10 -24 41 -26 29 -3 37 -7 37 -23 0
-17 -7 -19 -65 -19 l-65 0 0 105 0 105 60 0 c53 0 60 -2 60 -20z m101 -12 l13
-31 15 31 c11 25 21 32 43 32 l29 0 -28 -50 -28 -50 28 -49 c15 -27 27 -52 27
-55 0 -3 -13 -6 -29 -6 -25 0 -32 6 -42 35 l-13 36 -18 -36 c-14 -26 -25 -35
-43 -35 -14 0 -25 2 -25 5 0 3 12 29 26 57 l26 51 -27 48 -26 49 29 0 c24 0
32 -6 43 -32z m242 26 c9 -3 13 -13 10 -24 -4 -15 -11 -18 -33 -14 -52 11 -80
-66 -39 -107 14 -14 28 -19 44 -15 17 4 24 1 28 -14 7 -26 0 -30 -47 -30 -65
1 -96 36 -96 110 0 70 69 119 133 94z m165 -16 c3 -15 -4 -18 -32 -18 -29 0
-36 -4 -36 -20 0 -16 7 -20 30 -20 23 0 30 -4 30 -20 0 -16 -7 -20 -30 -20
-25 0 -30 -4 -30 -25 0 -22 4 -25 35 -25 28 0 35 -4 35 -20 0 -18 -7 -20 -60
-20 -58 0 -60 1 -61 28 -2 25 -1 125 0 165 1 16 9 18 58 15 46 -2 59 -7 61
-20z m84 -60 l3 -83 30 0 c23 -1 31 -6 33 -23 3 -21 0 -22 -57 -22 l-61 0 0
105 c0 105 0 105 25 105 24 0 24 -2 27 -82z m140 0 l3 -83 30 0 c23 -1 31 -6
33 -23 3 -21 0 -22 -57 -22 l-61 0 0 105 c0 105 0 105 25 105 24 0 24 -2 27
-82z m216 60 c3 -15 -4 -18 -32 -18 -29 0 -36 -4 -36 -20 0 -16 7 -20 30 -20
23 0 30 -4 30 -20 0 -16 -7 -20 -30 -20 -25 0 -30 -4 -30 -25 0 -22 4 -25 35
-25 29 0 35 -4 35 -20 0 -19 -5 -21 -62 -18 l-63 3 -3 89 c-2 49 0 96 2 103 9
22 120 14 124 -9z m115 -40 l26 -63 1 63 c0 59 1 62 25 62 l25 0 0 -106 0
-105 -31 3 c-28 3 -34 9 -53 58 l-21 55 -5 -55 c-4 -48 -8 -55 -27 -58 -23 -3
-23 -2 -23 102 l0 106 29 0 c26 0 31 -6 54 -62z m237 42 c0 -13 -7 -20 -20
-20 -18 0 -20 -7 -20 -85 l0 -85 -30 0 -30 0 0 85 c0 78 -2 85 -20 85 -13 0
-20 7 -20 20 0 18 7 20 70 20 63 0 70 -2 70 -20z"/>
<path d="M690 842 c0 -5 24 -35 54 -68 101 -111 227 -164 387 -164 153 0 285
60 384 173 69 79 54 77 -23 -2 -207 -213 -527 -213 -734 0 -37 39 -68 66 -68
61z"/>
<path d="M972 828 c-16 -16 -15 -29 2 -22 12 5 13 0 5 -31 -6 -20 -8 -40 -5
-43 12 -11 24 13 31 61 6 37 4 47 -7 47 -8 0 -19 -5 -26 -12z"/>
<path d="M1057 834 c-4 -4 -7 -18 -7 -31 0 -22 9 -27 37 -24 8 1 10 -5 7 -14
-3 -8 -17 -15 -30 -15 -13 0 -24 -4 -24 -10 0 -17 46 -11 64 9 11 12 16 31 14
53 -2 27 -8 34 -28 36 -14 2 -29 0 -33 -4z m43 -24 c0 -11 -7 -20 -15 -20 -15
0 -21 21 -8 33 12 13 23 7 23 -13z"/>
<path d="M1150 830 c0 -5 7 -7 15 -4 32 13 34 -8 5 -52 -22 -31 -27 -44 -17
-44 13 0 77 86 77 103 0 4 -18 7 -40 7 -22 0 -40 -4 -40 -10z"/>
<path d="M1254 826 c-3 -7 -4 -17 -3 -22 1 -5 -1 -17 -5 -26 -13 -30 1 -50 31
-46 22 2 28 8 29 28 1 14 5 33 9 42 4 9 4 22 0 28 -9 15 -55 12 -61 -4z m46
-11 c0 -8 -7 -15 -15 -15 -16 0 -20 12 -8 23 11 12 23 8 23 -8z m-10 -50 c0
-8 -7 -15 -15 -15 -16 0 -20 12 -8 23 11 12 23 8 23 -8z"/>
<path d="M499 765 c-53 -29 -57 -89 -8 -115 11 -6 17 -15 14 -20 -3 -5 -1 -12
5 -15 6 -4 46 19 88 51 42 31 78 58 80 59 1 1 0 10 -4 19 -6 15 -10 14 -40 -9
-34 -26 -50 -32 -39 -15 4 6 -1 22 -9 35 -18 28 -48 31 -87 10z m75 -38 c8
-12 5 -22 -14 -42 -27 -29 -55 -32 -69 -8 -12 22 3 51 32 63 27 11 38 8 51
-13z"/>
<path d="M1567 710 c-3 -11 -1 -20 5 -20 5 0 8 -8 7 -17 -3 -31 1 -36 16 -23
11 9 21 7 48 -14 38 -29 69 -33 87 -11 16 19 3 40 -16 24 -23 -19 -85 28 -78
58 7 25 -5 30 -24 11 -8 -8 -15 -8 -25 1 -12 9 -16 7 -20 -9z"/>
<path d="M635 640 c-27 -10 -42 -29 -50 -61 -9 -36 42 -96 71 -85 15 7 16 9 4
13 -26 9 -50 35 -50 55 0 26 14 23 53 -12 28 -24 37 -27 46 -17 11 14 15 38
13 69 -2 14 -51 50 -64 47 -2 0 -12 -4 -23 -9z m59 -42 c7 -11 7 -21 1 -27
-13 -12 -59 24 -50 39 9 15 36 9 49 -12z"/>
<path d="M1511 604 c-25 -32 -25 -34 -7 -60 13 -17 18 -18 47 -7 17 7 36 10
40 7 16 -9 9 -33 -12 -45 -16 -8 -18 -14 -9 -22 9 -9 17 -5 36 16 45 52 20
101 -39 79 -42 -16 -61 2 -29 28 25 21 28 30 8 30 -8 0 -24 -12 -35 -26z"/>
<path d="M739 508 c-24 -47 -28 -63 -19 -72 9 -8 14 -8 17 1 14 38 51 78 73
78 13 0 26 7 28 14 4 11 -3 13 -28 8 -27 -6 -30 -5 -21 7 9 10 8 15 -4 20 -11
4 -23 -11 -46 -56z"/>
<path d="M1387 522 c-39 -43 -2 -122 56 -122 39 0 87 34 71 50 -7 7 -16 5 -29
-10 -21 -23 -48 -26 -63 -7 -9 10 -1 18 34 36 44 21 45 23 31 44 -19 30 -77
35 -100 9z m70 -18 c4 -13 -44 -37 -58 -29 -5 4 -5 14 2 26 11 21 49 23 56 3z"/>
<path d="M1273 523 c-7 -3 -13 -13 -13 -24 0 -10 -4 -19 -10 -19 -5 0 -10 -7
-10 -15 0 -8 6 -12 15 -9 10 4 17 -6 26 -40 14 -55 30 -70 64 -62 28 7 25 26
-4 26 -26 0 -47 81 -26 93 22 12 18 26 -4 20 -14 -3 -20 1 -23 14 -2 11 -9 18
-15 16z"/>
<path d="M848 450 c-14 -66 -14 -70 3 -70 12 0 19 11 24 39 8 51 27 76 50 68
14 -6 16 -15 10 -53 -3 -26 -9 -53 -12 -61 -4 -11 0 -14 13 -11 12 2 22 17 29
45 12 50 27 68 50 59 17 -6 17 -27 -2 -103 -4 -17 -1 -23 10 -23 18 0 37 56
37 107 0 26 -5 34 -25 39 -14 3 -32 3 -41 0 -8 -3 -23 1 -31 10 -11 10 -26 14
-45 10 -15 -3 -28 -1 -28 4 0 6 -6 10 -13 10 -9 0 -19 -26 -29 -70z"/>
<path d="M1107 463 c-15 -14 -5 -20 30 -19 28 1 38 -3 41 -16 3 -14 -3 -18
-31 -18 -57 0 -76 -47 -32 -76 17 -11 25 -11 48 1 15 7 27 10 27 4 0 -5 7 -9
16 -9 12 0 14 8 9 48 -12 94 -11 92 -59 92 -23 0 -46 -3 -49 -7z m76 -69 c11
-12 -13 -44 -33 -44 -25 0 -35 17 -20 35 13 15 42 20 53 9z"/>
</g>
</svg>
