<?xml version="1.0" standalone="no"?>
<!DOCTYPE svg PUBLIC "-//W3C//DTD SVG 20010904//EN"
 "http://www.w3.org/TR/2001/REC-SVG-20010904/DTD/svg10.dtd">
<svg version="1.0" xmlns="http://www.w3.org/2000/svg"
 width="300.000000pt" height="298.000000pt" viewBox="0 0 300.000000 298.000000"
 preserveAspectRatio="xMidYMid meet">

<g transform="translate(0.000000,298.000000) scale(0.100000,-0.100000)"
fill="#000000" stroke="none">
<path d="M1441 2951 c-22 -17 -27 -17 -62 -3 -35 13 -39 13 -67 -6 -25 -18
-34 -20 -65 -10 -33 10 -40 9 -61 -12 -21 -19 -32 -21 -68 -16 -39 6 -47 4
-68 -20 -21 -22 -31 -25 -62 -20 -33 5 -39 3 -58 -25 -19 -26 -28 -30 -62 -28
-35 3 -42 0 -60 -29 -17 -27 -26 -32 -59 -32 -35 0 -41 -4 -56 -35 -15 -31
-21 -35 -53 -35 -34 0 -38 -3 -53 -40 -12 -31 -21 -40 -39 -40 -33 0 -51 -15
-64 -52 -8 -26 -18 -34 -47 -41 -31 -8 -36 -13 -42 -47 -5 -32 -12 -40 -46
-53 -35 -14 -39 -19 -39 -51 0 -32 -5 -39 -35 -53 -31 -15 -35 -21 -35 -54 0
-32 -5 -40 -36 -58 -33 -20 -35 -24 -29 -59 5 -34 3 -39 -25 -56 -29 -17 -32
-22 -28 -60 4 -35 1 -44 -24 -66 -26 -23 -28 -28 -18 -60 9 -31 7 -37 -17 -62
-24 -25 -26 -31 -15 -64 11 -38 6 -60 -22 -83 -13 -11 -13 -16 2 -47 15 -33
15 -37 -3 -70 -18 -34 -18 -36 -1 -69 17 -32 17 -35 1 -63 -17 -29 -17 -31 4
-65 21 -34 21 -38 6 -67 -15 -29 -15 -32 10 -64 22 -29 24 -37 14 -65 -10 -29
-9 -35 16 -61 24 -25 26 -31 17 -64 -10 -33 -8 -38 20 -61 27 -23 30 -30 25
-65 -5 -37 -2 -41 29 -61 31 -19 33 -24 28 -58 -5 -34 -4 -37 30 -54 32 -15
36 -21 36 -54 0 -34 4 -40 38 -58 30 -16 38 -26 40 -54 3 -28 9 -35 41 -48 31
-12 40 -22 47 -51 8 -31 15 -38 45 -45 30 -7 39 -15 52 -47 13 -33 20 -39 48
-42 28 -2 37 -10 52 -40 15 -34 21 -38 55 -38 34 0 40 -4 55 -36 16 -33 21
-36 53 -32 31 4 39 0 61 -29 23 -30 29 -33 61 -27 31 6 38 3 61 -24 24 -29 29
-31 63 -23 33 8 39 6 63 -19 24 -25 29 -27 66 -17 36 9 43 7 64 -13 23 -21 28
-22 65 -11 36 11 43 10 69 -10 27 -20 30 -20 62 -4 31 17 35 17 66 0 32 -17
34 -17 68 0 32 18 36 18 68 3 33 -16 35 -15 65 8 29 23 33 24 66 10 33 -14 35
-13 57 11 21 21 29 23 70 18 42 -6 48 -4 67 20 19 24 26 26 61 20 35 -6 41 -4
61 25 21 29 26 32 61 26 35 -6 39 -3 59 29 19 30 27 35 61 35 35 0 41 4 56 35
15 31 21 35 53 35 34 0 38 3 53 40 13 34 20 40 45 40 33 0 46 12 56 52 5 21
16 30 45 39 34 10 40 16 45 48 5 31 11 39 41 50 30 10 36 18 41 52 6 33 12 42
40 54 31 13 34 18 34 54 0 34 4 42 34 59 32 19 34 23 29 59 -4 35 -2 40 27 57
30 17 32 21 27 60 -5 36 -2 43 24 66 28 23 29 27 18 58 -10 31 -9 36 16 62 25
26 26 31 15 65 -11 33 -10 40 10 67 21 28 21 32 8 67 -14 35 -14 40 5 65 19
26 19 29 2 65 -16 36 -16 41 0 70 15 30 15 33 -6 62 -21 30 -21 32 -5 66 17
35 17 36 -10 64 -24 25 -25 30 -14 64 11 34 10 39 -14 64 -23 24 -26 33 -20
68 6 37 3 43 -20 58 -21 14 -26 25 -26 60 0 37 -5 47 -31 66 -26 19 -30 27
-27 57 4 30 0 37 -26 53 -24 14 -32 28 -36 56 -4 31 -11 41 -40 54 -29 14 -36
23 -40 55 -4 32 -10 39 -40 49 -28 9 -37 19 -44 48 -8 32 -15 39 -47 47 -30 8
-40 17 -49 44 -11 36 -26 46 -65 46 -16 0 -26 9 -35 30 -14 35 -37 50 -75 50
-19 0 -29 8 -41 34 -15 31 -19 33 -54 29 -34 -5 -39 -2 -59 30 -20 32 -24 35
-59 30 -34 -5 -42 -1 -64 26 -24 27 -29 29 -59 21 -30 -9 -37 -7 -62 18 -26
27 -31 28 -67 18 -35 -9 -42 -8 -65 14 -23 22 -27 22 -64 10 -36 -11 -42 -11
-69 9 -29 20 -32 21 -65 5 -31 -15 -36 -15 -65 0 -39 20 -41 20 -71 -3z m336
-80 c564 -115 996 -554 1109 -1127 27 -135 24 -395 -5 -534 -135 -636 -672
-1096 -1317 -1127 -475 -22 -916 188 -1203 577 -77 103 -181 314 -215 434 -59
206 -71 467 -31 661 127 617 626 1071 1250 1139 89 9 313 -3 412 -23z"/>
<path d="M1387 2823 c-2 -4 0 -48 6 -96 7 -63 6 -92 -1 -99 -24 -24 -40 11
-47 102 -4 50 -12 90 -17 90 -6 0 -7 -28 -3 -77 11 -110 17 -127 47 -131 43
-5 50 15 38 119 -11 93 -14 107 -23 92z"/>
<path d="M1450 2726 c0 -109 16 -149 22 -53 l3 52 15 -49 c8 -27 21 -51 27
-53 9 -3 8 9 -4 42 -12 37 -13 51 -3 69 6 12 10 38 8 57 -3 30 -7 34 -35 37
l-33 3 0 -105z m50 74 c13 -24 5 -56 -15 -64 -12 -4 -15 4 -15 39 0 48 12 58
30 25z"/>
<path d="M1558 2728 c-2 -57 -2 -107 1 -113 8 -13 19 74 20 153 2 104 -17 69
-21 -40z"/>
<path d="M1620 2819 c0 -4 5 -9 12 -11 8 -3 9 -28 1 -99 -5 -51 -8 -96 -6 -98
8 -11 15 13 25 98 8 64 15 91 25 91 29 0 11 18 -22 22 -19 2 -35 1 -35 -3z"/>
<path d="M1217 2803 c-11 -3 -16 -11 -12 -26 9 -43 35 -179 35 -183 0 -2 5 -4
11 -4 6 0 8 8 5 18 -18 63 -17 77 6 87 18 8 23 18 22 47 -2 57 -20 73 -67 61z
m47 -46 c8 -21 6 -31 -6 -44 -16 -15 -17 -14 -23 13 -4 16 -9 37 -12 47 -8 31
30 16 41 -16z"/>
<path d="M1723 2728 c1 -46 -1 -95 -6 -110 -4 -17 -3 -28 2 -28 6 0 13 17 17
38 3 20 19 63 36 95 16 32 27 64 25 70 -3 7 -15 -10 -28 -38 l-24 -50 -3 53
c-5 85 -21 59 -19 -30z"/>
<path d="M1887 2760 c-13 -35 -57 -182 -57 -191 0 -5 3 -9 8 -9 10 0 65 187
59 203 -3 9 -6 8 -10 -3z"/>
<path d="M1913 2652 c-23 -57 -37 -102 -31 -100 6 2 21 29 32 60 31 84 38 81
30 -10 -4 -47 -3 -82 2 -82 5 0 25 42 44 92 19 51 37 96 38 100 2 4 0 8 -5 8
-5 0 -20 -29 -33 -65 -13 -36 -27 -65 -30 -65 -3 0 -4 24 -2 53 8 118 0 119
-45 9z"/>
<path d="M1047 2734 c-12 -12 -8 -49 8 -70 9 -12 12 -31 9 -51 -4 -23 -1 -36
15 -52 20 -20 22 -20 55 -3 23 11 31 21 25 28 -5 6 -7 19 -3 28 3 9 1 16 -5
16 -6 0 -11 -5 -11 -12 0 -6 -8 -4 -19 7 -13 11 -21 33 -23 64 -2 37 -7 47
-23 49 -12 2 -24 0 -28 -4z m41 -37 c2 -15 -1 -27 -6 -27 -17 0 -34 29 -28 46
9 23 31 11 34 -19z m42 -112 c0 -18 -25 -26 -39 -12 -6 6 -11 21 -11 34 0 23
1 23 25 7 14 -9 25 -22 25 -29z"/>
<path d="M895 2682 c-27 -15 -28 -17 -9 -20 16 -2 31 -24 59 -88 21 -46 42
-84 46 -84 13 0 13 -2 -31 95 -32 68 -38 90 -29 101 15 19 1 17 -36 -4z"/>
<path d="M2110 2655 c10 -12 3 -30 -35 -101 -26 -48 -42 -85 -35 -82 8 2 32
39 54 81 30 56 47 77 61 77 19 1 19 2 -4 20 -28 24 -60 28 -41 5z"/>
<path d="M820 2645 c0 -3 18 -34 39 -68 22 -34 38 -63 36 -66 -2 -2 -30 19
-62 47 -31 28 -60 49 -64 46 -4 -2 17 -45 48 -95 31 -49 58 -88 61 -85 2 3
-12 33 -32 67 -20 34 -35 63 -34 65 2 2 30 -19 62 -47 32 -27 61 -48 63 -45 6
6 -100 185 -109 186 -5 0 -8 -2 -8 -5z"/>
<path d="M2147 2525 c-32 -47 -57 -87 -57 -90 0 -16 19 1 43 40 25 38 31 43
48 35 25 -14 24 -18 -7 -63 -14 -21 -24 -43 -22 -48 2 -6 31 31 65 80 34 50
56 91 49 91 -6 0 -20 -13 -29 -30 -20 -34 -29 -37 -47 -15 -10 12 -8 21 10 50
12 19 17 35 12 35 -5 0 -34 -38 -65 -85z"/>
<path d="M1480 2579 c0 -2 7 -36 15 -74 21 -101 19 -253 -5 -344 -32 -120 -44
-242 -30 -318 14 -82 53 -163 79 -163 37 0 45 26 43 137 -2 90 2 119 24 187
45 141 32 317 -33 441 -22 43 -93 145 -93 134z"/>
<path d="M697 2556 c-17 -13 -14 -20 45 -100 58 -78 64 -84 82 -72 29 18 35
41 8 27 -27 -15 -25 -15 -51 20 -22 29 -22 31 -4 44 10 7 15 17 11 21 -4 4
-14 1 -23 -6 -12 -10 -18 -8 -35 11 -23 28 -25 40 -8 57 16 16 -3 15 -25 -2z"/>
<path d="M2250 2454 c-53 -68 -69 -94 -56 -94 7 0 126 152 126 161 0 18 -11 7
-70 -67z"/>
<path d="M628 2496 c-33 -26 -36 -40 -8 -31 11 3 20 3 20 -2 1 -13 119 -139
120 -127 0 5 -27 41 -59 80 -44 51 -57 72 -49 82 19 22 4 21 -24 -2z"/>
<path d="M2337 2470 c-17 -14 -27 -34 -32 -67 -4 -27 -12 -54 -17 -60 -13 -16
-48 -17 -48 -2 0 5 -5 7 -10 4 -16 -10 8 -35 31 -35 32 0 56 35 64 89 7 56 28
76 58 60 11 -7 17 -7 17 0 0 6 -9 15 -19 20 -14 8 -25 6 -44 -9z"/>
<path d="M560 2434 c0 -5 22 -32 50 -59 27 -27 48 -50 46 -53 -2 -2 -32 11
-66 28 -34 17 -66 30 -71 28 -5 -2 24 -37 66 -78 41 -40 77 -71 80 -68 4 3
-16 27 -44 53 -28 26 -51 52 -51 56 0 5 32 -7 70 -26 43 -21 70 -30 69 -23 -2
16 -149 156 -149 142z"/>
<path d="M2399 2324 c-35 -31 -68 -60 -73 -65 -5 -5 -7 -12 -3 -16 4 -3 21 6
37 22 26 25 33 28 50 17 28 -17 44 -15 68 11 24 26 28 57 10 75 -18 18 -20 17
-89 -44z m81 18 c0 -26 -35 -56 -56 -48 -15 6 -14 10 11 36 33 35 45 38 45 12z"/>
<path d="M2067 2329 c-133 -53 -256 -168 -324 -304 -12 -22 -30 -78 -42 -125
-12 -48 -44 -130 -73 -186 -51 -101 -51 -102 -34 -129 l17 -26 32 21 c18 11
48 30 67 41 31 17 38 29 49 77 19 87 77 226 138 336 57 102 194 291 216 299 6
2 10 7 7 10 -3 3 -27 -4 -53 -14z"/>
<path d="M929 2270 c100 -86 204 -211 250 -300 21 -41 58 -130 81 -197 l42
-122 82 -71 c44 -40 86 -74 92 -76 5 -3 27 2 47 11 l37 15 -34 48 c-46 65
-120 215 -147 298 -49 155 -123 255 -249 339 -69 46 -180 97 -240 110 -31 7
-27 2 39 -55z"/>
<path d="M445 2300 c-26 -28 -10 -58 59 -110 60 -45 90 -49 113 -14 12 19 11
25 -14 54 -29 34 -108 90 -128 90 -7 0 -20 -9 -30 -20z m96 -40 c60 -45 76
-67 61 -82 -17 -17 -57 -1 -108 45 -34 31 -46 48 -41 60 10 26 30 21 88 -23z"/>
<path d="M2475 2243 c-33 -25 -69 -51 -79 -59 -11 -7 -17 -17 -13 -20 3 -4 23
6 42 21 48 36 54 26 14 -24 -18 -23 -29 -44 -26 -48 4 -3 8 -4 10 -2 2 2 16
21 31 42 18 23 37 37 50 37 51 0 85 57 54 88 -16 16 -15 17 -83 -35z m56 -25
c-20 -15 -51 -15 -51 1 0 3 15 16 33 29 29 20 32 21 36 5 2 -9 -6 -25 -18 -35z"/>
<path d="M382 2208 c-7 -7 -12 -18 -12 -25 0 -22 60 -81 106 -103 42 -21 46
-21 69 -6 25 16 33 36 16 36 -6 0 -13 -4 -16 -10 -11 -17 -46 -11 -91 15 -49
29 -68 56 -59 85 7 23 4 25 -13 8z"/>
<path d="M2522 2143 c-65 -38 -85 -70 -65 -102 17 -27 45 -23 111 16 77 45 90
65 67 99 -21 33 -40 30 -113 -13z m106 -5 c4 -22 -113 -100 -143 -96 -42 6
-28 36 36 78 65 42 101 48 107 18z"/>
<path d="M298 2045 c-6 -14 -9 -27 -7 -29 7 -7 182 -86 184 -84 6 8 25 47 25
52 0 15 -18 4 -23 -14 -5 -20 -6 -20 -42 -3 -31 15 -35 21 -30 42 6 25 6 25
-14 7 -18 -16 -24 -17 -51 -6 -25 10 -29 17 -24 36 8 32 -3 31 -18 -1z"/>
<path d="M2582 2015 c-86 -41 -92 -46 -82 -64 20 -38 44 -43 103 -21 72 27
101 58 92 99 -4 17 -10 31 -13 31 -4 -1 -49 -21 -100 -45z m96 -7 c-2 -14 -18
-29 -48 -44 -65 -32 -84 -36 -106 -20 -18 14 -14 17 56 50 89 42 103 44 98 14z"/>
<path d="M249 1926 c-17 -37 7 -60 93 -88 79 -26 103 -19 103 28 0 25 -7 33
-48 53 -26 13 -68 26 -92 29 -40 4 -45 2 -56 -22z m128 -18 c50 -18 70 -39 57
-60 -9 -14 -62 -4 -119 21 -48 21 -67 47 -44 62 15 9 26 7 106 -23z"/>
<path d="M2314 1939 c-186 -17 -334 -96 -462 -246 -76 -89 -125 -128 -227
-183 -44 -24 -82 -45 -84 -46 -2 -2 18 -23 45 -48 l49 -44 70 26 c38 14 74 32
78 39 25 41 131 154 206 220 95 83 274 206 364 249 55 27 71 41 45 40 -7 0
-45 -3 -84 -7z"/>
<path d="M612 1933 c-18 -4 -3 -12 57 -33 201 -69 415 -236 562 -439 41 -56
51 -63 141 -102 95 -41 97 -41 149 -29 48 12 51 14 33 27 -67 49 -233 207
-309 295 -134 154 -176 192 -247 227 -96 48 -283 74 -386 54z"/>
<path d="M2675 1914 c-104 -37 -124 -46 -129 -60 -9 -23 12 -54 37 -54 32 0
177 50 177 61 0 12 6 13 -95 -21 -88 -30 -114 -29 -102 4 3 8 44 27 91 42 47
16 86 32 86 36 0 11 -18 9 -65 -8z"/>
<path d="M216 1791 c10 -9 162 -51 186 -51 16 0 34 47 23 58 -3 3 -8 -4 -12
-16 -7 -27 -9 -27 -103 -2 -82 22 -109 25 -94 11z"/>
<path d="M2658 1776 c-58 -16 -78 -32 -78 -62 0 -30 18 -31 22 -2 3 26 34 43
95 53 34 5 45 3 62 -14 25 -25 31 -26 31 -7 0 19 -39 46 -65 45 -11 0 -41 -6
-67 -13z"/>
<path d="M215 1700 c-34 -8 -40 -4 85 -52 73 -27 129 -38 83 -16 -30 14 -32
58 -4 58 11 0 23 5 26 10 7 12 -142 12 -190 0z m135 -14 c0 -2 -3 -11 -6 -19
-5 -13 -11 -13 -51 -1 -65 20 -65 24 0 24 32 0 57 -2 57 -4z"/>
<path d="M2777 1681 c-3 -15 -21 -20 -92 -29 -48 -7 -90 -14 -93 -17 -14 -14
13 -14 97 -2 83 13 93 12 101 -2 7 -12 9 -7 10 21 0 40 -15 59 -23 29z"/>
<path d="M282 1478 c-21 -33 -18 -52 11 -77 12 -10 19 -7 35 16 l20 28 -23 33
-23 33 -20 -33z"/>
<path d="M2707 1475 c-17 -24 -17 -26 0 -55 21 -37 27 -37 51 -2 20 27 20 28
0 55 -24 33 -28 33 -51 2z"/>
<path d="M2095 1434 c-140 -15 -328 -62 -470 -117 l-80 -30 80 -27 80 -27 44
20 c139 61 344 97 594 104 118 4 193 9 185 14 -7 5 -49 21 -93 35 -80 26 -238
38 -340 28z"/>
<path d="M885 1409 c-94 -12 -235 -53 -293 -84 -32 -18 -38 -24 -21 -21 131
27 273 33 378 15 35 -5 112 -30 170 -54 185 -76 308 -94 431 -65 l53 13 -38
19 c-79 41 -267 118 -361 148 -109 35 -209 44 -319 29z"/>
<path d="M733 1265 c-17 -7 -37 -23 -43 -35 -16 -31 -10 -511 8 -532 10 -13 2
-27 -54 -87 -37 -39 -64 -75 -60 -78 3 -4 36 26 72 65 51 56 69 70 79 62 10
-8 15 -8 20 0 4 6 13 9 20 6 23 -8 84 14 100 37 11 15 15 47 15 115 0 93 0 94
-22 88 -13 -3 -31 -6 -40 -6 -15 0 -18 -10 -18 -62 0 -66 -12 -100 -29 -83 -5
6 -11 104 -12 220 -4 193 -3 210 14 213 15 3 17 -5 17 -62 l0 -66 45 0 45 0 0
64 c0 85 -14 121 -55 140 -40 19 -60 20 -102 1z"/>
<path d="M2143 1213 c4 -38 7 -164 7 -280 l0 -213 63 0 63 0 31 -44 c17 -24
52 -56 77 -71 40 -24 50 -26 74 -16 34 14 57 47 40 57 -6 4 -15 -1 -20 -10
-15 -27 -61 -19 -106 20 -61 51 -69 71 -43 98 21 22 22 33 21 235 0 229 -5
255 -50 278 -14 7 -56 13 -94 13 l-69 0 6 -67z m117 -23 c7 -12 9 -88 8 -202
-3 -155 -5 -183 -18 -183 -13 0 -15 30 -18 203 -2 198 2 230 28 182z"/>
<path d="M328 1232 c-84 -24 -128 -42 -128 -51 0 -8 7 -11 18 -9 196 54 262
75 262 86 0 17 -8 15 -152 -26z"/>
<path d="M2590 1241 c0 -5 19 -15 43 -21 23 -6 66 -18 96 -26 44 -13 55 -13
62 -2 12 18 11 50 -1 43 -5 -3 -10 -13 -10 -21 0 -10 -6 -13 -17 -10 -10 3
-46 12 -80 21 -34 8 -69 18 -78 21 -8 3 -15 1 -15 -5z"/>
<path d="M2580 1190 c0 -9 9 -13 104 -46 72 -25 107 -31 91 -15 -16 14 -195
70 -195 61z"/>
<path d="M317 1155 c-49 -18 -91 -36 -95 -39 -11 -12 18 -6 73 15 31 12 58 19
61 16 2 -2 -20 -23 -51 -47 -54 -41 -73 -69 -37 -55 9 4 55 21 101 38 46 17
79 33 73 35 -6 2 -38 -7 -72 -19 -33 -12 -62 -20 -65 -17 -2 2 22 24 55 48 55
41 72 61 53 60 -5 -1 -48 -16 -96 -35z"/>
<path d="M2555 1136 c-12 -28 5 -48 65 -78 64 -33 115 -37 130 -9 6 12 6 22 1
25 -5 3 -11 -1 -15 -9 -7 -20 -52 -19 -101 4 -44 20 -61 36 -67 66 -5 19 -5
19 -13 1z"/>
<path d="M443 1076 c4 -10 -19 -25 -79 -52 -46 -20 -84 -41 -84 -46 0 -12 -1
-12 86 28 63 28 83 33 96 25 21 -13 23 -3 6 34 -12 26 -34 36 -25 11z"/>
<path d="M1673 1083 c-23 -4 -23 -6 -23 -169 l0 -164 40 0 40 0 0 85 0 85 35
0 c28 0 35 4 35 20 0 16 -7 20 -35 20 -34 0 -35 1 -35 40 0 39 1 40 35 40 31
0 35 3 35 25 0 24 -3 25 -52 24 -29 -1 -63 -4 -75 -6z"/>
<path d="M1830 997 c0 -52 3 -128 6 -170 l7 -77 33 0 34 0 0 170 0 170 -40 0
-40 0 0 -93z"/>
<path d="M1940 951 c0 -76 3 -153 6 -170 6 -30 8 -31 64 -31 71 0 90 7 90 31
0 15 -7 19 -40 19 l-40 0 0 60 0 60 35 0 c28 0 35 4 35 20 0 16 -7 20 -35 20
-35 0 -35 0 -35 45 l0 45 39 0 c34 0 38 3 34 20 -5 18 -14 20 -79 20 l-74 0 0
-139z"/>
<path d="M998 1072 l-68 -3 0 -97 c0 -53 3 -127 7 -164 l6 -68 73 0 c67 0 74
2 74 19 0 16 -8 20 -37 23 l-38 3 -3 56 -3 56 40 7 c33 5 38 9 34 26 -4 15
-14 20 -39 20 -33 0 -34 1 -34 40 l0 40 41 0 c36 0 40 2 37 22 -4 25 -3 25
-90 20z"/>
<path d="M1110 910 l0 -170 40 0 40 0 0 81 c0 71 2 80 18 77 14 -3 18 -17 22
-78 l5 -75 41 -3 40 -3 -3 63 c-6 94 -10 107 -40 114 l-26 7 26 13 c31 17 41
44 32 85 -9 40 -53 59 -135 59 l-60 0 0 -170z m120 75 c0 -32 -20 -61 -33 -48
-4 3 -7 25 -7 48 0 23 3 45 7 48 13 13 33 -16 33 -48z"/>
<path d="M1330 1060 c0 -16 7 -20 30 -20 l30 0 0 -150 0 -150 40 0 40 0 0 150
0 150 28 0 c21 0 28 5 28 20 0 19 -7 20 -98 20 -91 0 -98 -1 -98 -20z"/>
<path d="M1540 976 c0 -56 3 -131 6 -165 l7 -61 39 0 c33 0 39 3 34 16 -3 9
-6 83 -6 165 l0 149 -40 0 -40 0 0 -104z"/>
<path d="M2520 1055 c0 -3 30 -21 68 -40 l67 -36 -60 6 c-33 4 -71 9 -84 12
-17 4 -22 2 -17 -6 10 -15 186 -104 186 -93 0 4 -27 21 -60 37 -56 28 -81 52
-42 41 31 -9 132 -18 132 -12 0 5 -174 96 -185 96 -3 0 -5 -2 -5 -5z"/>
<path d="M407 966 c-98 -54 -102 -58 -88 -85 7 -12 16 -21 22 -21 6 0 6 8 -1
21 -13 24 -15 21 28 43 32 17 34 17 48 -1 13 -17 14 -16 8 8 -5 22 -1 28 27
39 28 12 33 11 44 -3 7 -9 15 -14 18 -11 6 7 -13 54 -22 54 -3 0 -41 -20 -84
-44z"/>
<path d="M2481 953 c0 -5 34 -29 75 -55 72 -46 94 -78 54 -78 -11 0 -51 21
-90 46 -39 25 -74 43 -77 40 -8 -8 -11 -5 75 -60 79 -50 106 -56 122 -26 15
28 -1 48 -80 98 -68 43 -80 48 -79 35z"/>
<path d="M443 883 c-46 -30 -83 -59 -83 -64 0 -11 9 -7 53 24 41 28 42 16 1
-31 -19 -23 -31 -42 -26 -42 6 0 24 16 41 35 18 21 40 35 53 35 34 0 68 27 68
54 0 48 -21 46 -107 -11z m91 19 c12 -21 -42 -56 -64 -42 -16 10 -16 9 20 33
27 19 37 21 44 9z"/>
<path d="M497 800 c-43 -33 -77 -65 -77 -71 0 -5 25 11 56 36 31 25 59 44 61
42 2 -3 -17 -34 -42 -71 -26 -36 -42 -66 -36 -66 14 0 164 121 157 127 -3 3
-28 -14 -56 -37 -28 -23 -53 -41 -55 -38 -2 2 14 32 37 66 22 34 39 65 36 67
-3 3 -39 -22 -81 -55z"/>
<path d="M2394 835 c-14 -21 -14 -28 -3 -42 25 -31 73 -72 105 -89 35 -19 58
-15 73 15 9 16 6 26 -16 52 -29 35 -109 89 -130 89 -7 0 -20 -11 -29 -25z m71
-14 c47 -28 97 -79 93 -93 -9 -25 -39 -19 -87 16 -61 45 -75 62 -67 81 7 20
25 19 61 -4z"/>
<path d="M571 694 c-46 -30 -81 -58 -77 -61 3 -3 12 0 21 7 9 7 17 11 18 9 1
-2 9 -12 16 -21 11 -15 11 -21 1 -33 -7 -9 -10 -18 -8 -21 6 -5 127 155 128
169 0 13 -14 6 -99 -49z m59 9 c-22 -40 -58 -75 -69 -69 -21 13 -11 31 32 58
50 33 51 33 37 11z"/>
<path d="M705 565 c-59 -74 -78 -104 -57 -91 14 8 132 152 132 160 0 18 -21
-2 -75 -69z"/>
<path d="M2185 616 c-19 -13 -17 -18 40 -92 33 -43 65 -79 70 -81 15 -5 52 24
43 33 -4 4 -15 1 -23 -6 -14 -12 -20 -9 -40 16 -27 33 -29 40 -15 49 6 3 10
11 10 17 0 6 -6 5 -16 -3 -13 -11 -19 -8 -39 17 -21 27 -22 30 -8 47 19 20 5
23 -22 3z"/>
<path d="M774 563 c-19 -20 -44 -57 -55 -81 l-22 -44 20 -20 c28 -28 55 -17
97 40 55 76 63 98 41 122 -26 29 -43 25 -81 -17z m73 1 c3 -9 -10 -38 -33 -71
-46 -67 -68 -83 -86 -65 -15 15 5 57 54 116 31 38 55 46 65 20z"/>
<path d="M2120 560 c-8 -16 -7 -30 8 -63 29 -66 70 -109 100 -105 14 2 28 9
30 17 3 9 0 11 -7 6 -26 -15 -57 6 -90 60 -29 48 -32 59 -23 80 14 30 -2 34
-18 5z"/>
<path d="M850 459 c-51 -92 -57 -104 -42 -95 5 3 24 31 42 62 17 31 33 54 35
52 2 -2 -3 -32 -11 -67 -24 -101 -13 -102 44 -2 29 51 51 95 48 98 -2 3 -19
-20 -36 -51 -35 -62 -54 -80 -45 -44 14 62 25 114 25 121 1 23 -20 -3 -60 -74z"/>
<path d="M2060 526 c0 -4 16 -37 36 -72 20 -35 32 -64 27 -64 -5 0 -33 25 -63
55 -29 30 -56 53 -58 50 -6 -6 91 -185 101 -185 5 0 -7 29 -27 65 -20 36 -32
65 -29 65 4 0 31 -23 60 -52 29 -28 55 -49 58 -47 3 3 -15 43 -40 90 -44 81
-65 112 -65 95z"/>
<path d="M963 395 c-34 -49 -59 -92 -57 -95 3 -3 12 3 19 13 21 28 54 7 47
-30 -3 -19 -1 -25 5 -18 13 13 56 190 51 206 -2 7 -32 -27 -65 -76z m35 -19
c-11 -43 -29 -58 -43 -36 -6 10 43 95 51 87 3 -2 -1 -25 -8 -51z"/>
<path d="M1267 467 c-59 -138 -106 -262 -101 -266 5 -6 30 22 36 41 2 5 16 6
31 3 21 -6 27 -13 27 -35 0 -58 17 -37 24 28 13 147 4 279 -17 229z m-2 -175
c-5 -28 -9 -32 -28 -26 -12 3 -23 7 -24 8 -2 1 10 34 25 72 l27 69 3 -45 c2
-24 1 -60 -3 -78z"/>
<path d="M1686 458 c-30 -42 -19 -75 50 -150 24 -26 44 -52 44 -58 0 -23 -22
-50 -40 -50 -11 0 -20 -4 -20 -10 0 -16 47 -12 64 6 9 8 16 31 16 50 0 27 -11
45 -51 90 -56 62 -63 101 -21 119 29 13 28 25 -2 25 -14 0 -32 -10 -40 -22z"/>
<path d="M1947 467 c-16 -11 -14 -19 22 -102 22 -50 46 -91 53 -93 7 -1 22 4
33 13 19 15 19 15 -7 9 -24 -5 -29 -2 -42 31 -19 46 -19 45 -1 45 8 0 15 5 15
11 0 6 -8 8 -18 5 -14 -5 -22 3 -35 28 -15 33 -15 35 6 50 16 11 18 15 6 15
-8 1 -23 -5 -32 -12z"/>
<path d="M1080 425 c-25 -63 -60 -163 -60 -173 0 -11 49 -26 58 -17 3 3 -4 8
-16 12 -12 3 -22 8 -22 12 0 4 14 45 30 90 17 46 29 89 27 95 -3 6 -10 -2 -17
-19z"/>
<path d="M1912 358 c17 -46 33 -91 35 -100 3 -10 10 -18 15 -18 11 0 9 7 -31
116 -16 43 -33 80 -39 82 -6 2 3 -34 20 -80z"/>
<path d="M1822 418 c-28 -28 -6 -145 34 -185 25 -25 44 -27 52 -3 3 9 -1 11
-11 7 -22 -8 -48 25 -63 84 -13 51 -6 89 16 89 6 0 10 5 10 10 0 14 -23 13
-38 -2z"/>
<path d="M1333 278 c-6 -57 -9 -106 -6 -110 6 -12 53 -10 53 2 0 6 -10 10 -21
10 -19 0 -21 4 -16 43 16 116 19 157 10 157 -5 0 -14 -46 -20 -102z"/>
<path d="M1430 360 c-17 -17 -20 -33 -20 -105 0 -74 2 -86 20 -95 23 -12 54 0
64 26 3 8 6 48 6 88 0 58 -4 76 -18 89 -24 22 -28 21 -52 -3z m48 -86 c2 -64
-1 -84 -13 -94 -27 -23 -40 4 -39 80 2 83 8 103 31 98 15 -3 18 -16 21 -84z"/>
<path d="M1530 342 c0 -16 3 -63 6 -105 l7 -77 31 1 c29 1 30 1 6 8 -21 6 -26
14 -28 49 -3 37 -1 42 17 42 12 0 21 5 21 10 0 6 -9 10 -20 10 -31 0 -29 67 3
80 20 8 19 9 -10 9 -30 1 -33 -2 -33 -27z"/>
</g>
</svg>
