<?xml version="1.0" standalone="no"?>
<!DOCTYPE svg PUBLIC "-//W3C//DTD SVG 20010904//EN"
 "http://www.w3.org/TR/2001/REC-SVG-20010904/DTD/svg10.dtd">
<svg version="1.0" xmlns="http://www.w3.org/2000/svg"
 width="255.000000pt" height="255.000000pt" viewBox="0 0 255.000000 255.000000"
 preserveAspectRatio="xMidYMid meet">

<g transform="translate(0.000000,255.000000) scale(0.100000,-0.100000)"
fill="#000000" stroke="none">
<path d="M1327 2343 c-4 -3 -7 -11 -7 -17 0 -6 5 -5 12 2 6 6 9 14 7 17 -3 3
-9 2 -12 -2z"/>
<path d="M1893 2315 c0 -22 2 -30 4 -17 2 12 2 30 0 40 -3 9 -5 -1 -4 -23z"/>
<path d="M1376 2323 c-6 -14 -5 -15 5 -6 7 7 10 15 7 18 -3 3 -9 -2 -12 -12z"/>
<path d="M1430 2319 c0 -5 5 -7 10 -4 6 3 10 8 10 11 0 2 -4 4 -10 4 -5 0 -10
-5 -10 -11z"/>
<path d="M996 2305 c-9 -26 -7 -32 5 -12 6 10 9 21 6 23 -2 3 -7 -2 -11 -11z"/>
<path d="M1045 2310 c-3 -5 -1 -10 4 -10 6 0 11 5 11 10 0 6 -2 10 -4 10 -3 0
-8 -4 -11 -10z"/>
<path d="M1540 2300 c-9 -6 -10 -10 -3 -10 6 0 15 5 18 10 8 12 4 12 -15 0z"/>
<path d="M1590 2280 c-8 -5 -10 -10 -5 -10 6 0 17 5 25 10 8 5 11 10 5 10 -5
0 -17 -5 -25 -10z"/>
<path d="M1787 2245 c-4 -8 -13 -15 -21 -15 -8 0 -17 -4 -20 -9 -4 -5 3 -7 14
-4 21 6 46 31 38 39 -3 3 -8 -2 -11 -11z"/>
<path d="M1960 2245 c0 -5 5 -17 10 -25 5 -8 10 -10 10 -5 0 6 -5 17 -10 25
-5 8 -10 11 -10 5z"/>
<path d="M1180 2230 c-269 -26 -531 -180 -689 -405 -59 -83 -103 -169 -93
-179 3 -3 69 -6 146 -6 l142 0 38 53 c62 83 151 155 251 202 120 57 178 70
315 69 101 -1 125 -4 203 -31 146 -51 245 -121 337 -237 l48 -60 138 3 c77 1
140 4 142 6 7 6 -62 132 -100 183 -22 30 -36 58 -32 65 4 6 3 9 -1 4 -8 -7
-161 132 -158 144 1 3 -4 6 -11 6 -7 0 -32 13 -57 30 -117 80 -275 136 -429
153 -52 5 -99 9 -105 8 -5 0 -44 -4 -85 -8z m113 -39 c4 -16 -2 -21 -25 -26
l-30 -7 7 -85 7 -85 -24 4 c-21 3 -23 8 -28 83 l-5 80 -32 3 c-38 4 -45 29
-10 37 92 20 134 18 140 -4z m67 -8 c0 -16 -3 -65 -7 -110 -5 -72 -8 -83 -24
-83 -17 0 -19 9 -19 103 0 57 3 107 7 110 3 4 15 7 25 7 13 0 18 -7 18 -27z
m168 -27 c-2 -12 -8 -20 -13 -19 -61 9 -70 8 -73 -14 -3 -18 2 -22 30 -25 25
-2 33 -8 33 -23 0 -21 -3 -22 -46 -11 -25 5 -27 3 -33 -39 -6 -35 -11 -45 -26
-45 -26 0 -29 9 -20 55 5 22 14 67 21 101 l12 60 59 -9 c52 -9 59 -12 56 -31z
m-415 -7 c16 -22 17 -30 7 -49 -7 -13 -8 -25 -3 -29 15 -10 53 -81 43 -81 -4
0 -15 -3 -24 -6 -11 -4 -21 5 -33 30 -10 23 -24 36 -36 36 -19 0 -19 -10 -1
-71 3 -11 -3 -18 -16 -22 -25 -6 -28 -2 -46 80 -8 38 -17 80 -20 94 -5 20 -1
28 18 37 39 19 89 10 111 -19z m481 5 c13 -5 13 -12 -5 -57 -11 -29 -27 -73
-35 -99 -15 -48 -20 -53 -48 -42 -13 5 -13 12 5 57 11 29 27 73 35 100 15 47
20 52 48 41z m-687 -43 c10 -16 7 -21 -23 -37 -37 -20 -38 -22 -25 -43 7 -11
14 -10 39 7 27 20 31 20 43 6 11 -14 10 -18 -6 -30 -22 -16 -39 -18 -30 -4 3
6 2 10 -3 10 -14 0 -11 -48 4 -61 10 -8 21 -7 45 5 26 13 34 14 41 4 12 -20 7
-26 -48 -58 l-51 -29 -28 52 c-16 29 -39 71 -52 93 l-24 42 48 30 c58 37 55
36 70 13z m804 -8 c47 -25 60 -45 39 -58 -5 -3 -23 1 -40 10 -17 9 -35 13 -40
10 -19 -12 -10 -33 20 -45 32 -13 34 -18 21 -39 -7 -10 -13 -11 -31 -1 -18 10
-20 14 -9 22 11 8 10 8 -4 4 -10 -3 -22 -6 -27 -6 -4 0 -10 -9 -13 -20 -4 -15
3 -26 28 -43 23 -16 31 -27 26 -36 -10 -16 -62 -2 -100 28 l-24 18 49 91 c27
51 51 92 53 92 2 0 25 -12 52 -27z m176 -116 c46 -41 36 -123 -19 -161 -35
-25 -96 -20 -140 10 -21 15 -38 30 -38 34 0 5 28 45 61 89 l62 82 26 -17 c14
-9 36 -26 48 -37z m-1132 26 c3 -10 1 -19 -6 -22 -19 -6 -59 -52 -59 -68 0
-19 54 -73 73 -73 9 0 29 12 46 26 26 22 34 24 47 13 13 -11 11 -16 -18 -46
-62 -64 -161 -35 -177 53 -9 50 1 82 37 111 32 27 48 29 57 6z"/>
<path d="M1210 2153 c0 -58 12 -143 20 -143 4 0 3 26 -2 58 -5 31 -8 72 -6 90
2 17 0 32 -4 32 -4 0 -8 -17 -8 -37z"/>
<path d="M1038 2153 c6 -2 18 -2 25 0 6 3 1 5 -13 5 -14 0 -19 -2 -12 -5z"/>
<path d="M1037 2133 c-8 -8 -9 -53 -1 -53 3 0 14 5 25 10 23 13 25 36 3 44
-19 7 -19 7 -27 -1z"/>
<path d="M1563 2105 c-3 -9 -3 -18 -1 -21 3 -3 8 4 11 16 6 23 -1 27 -10 5z"/>
<path d="M845 2080 c-3 -5 -2 -10 4 -10 5 0 13 5 16 10 3 6 2 10 -4 10 -5 0
-13 -4 -16 -10z"/>
<path d="M925 1930 c-3 -5 -2 -10 4 -10 5 0 13 5 16 10 3 6 2 10 -4 10 -5 0
-13 -4 -16 -10z"/>
<path d="M1690 2086 c0 -2 7 -7 16 -10 8 -3 12 -2 9 4 -6 10 -25 14 -25 6z"/>
<path d="M1615 1930 c3 -5 11 -10 16 -10 6 0 7 5 4 10 -3 6 -11 10 -16 10 -6
0 -7 -4 -4 -10z"/>
<path d="M1859 1976 c27 -29 33 -32 25 -13 -2 7 -14 19 -27 26 -21 13 -21 12
2 -13z"/>
<path d="M1785 1933 c-19 -27 -35 -51 -35 -55 0 -4 14 -15 30 -23 30 -15 32
-15 60 14 34 34 39 70 12 94 -10 10 -22 17 -25 17 -4 0 -22 -21 -42 -47z"/>
<path d="M1757 1839 c7 -7 15 -10 18 -7 3 3 -2 9 -12 12 -14 6 -15 5 -6 -5z"/>
<path d="M691 1981 c-7 -5 -12 -14 -10 -20 2 -6 10 -2 17 9 14 22 13 23 -7 11z"/>
<path d="M800 1845 c-17 -10 -20 -14 -9 -15 9 0 22 7 29 15 15 18 12 18 -20 0z"/>
<path d="M1946 2217 c3 -10 9 -15 12 -12 3 3 0 11 -7 18 -10 9 -11 8 -5 -6z"/>
<path d="M2038 2213 c-21 -8 -38 -20 -38 -25 0 -7 4 -7 13 0 20 17 40 -2 35
-33 -3 -14 -2 -23 2 -18 8 8 31 85 27 89 -1 1 -19 -5 -39 -13z"/>
<path d="M1843 2203 c0 -9 4 -10 14 -2 7 6 13 12 13 14 0 1 -6 2 -13 2 -8 0
-14 -6 -14 -14z"/>
<path d="M741 2194 c0 -11 3 -14 6 -6 3 7 2 16 -1 19 -3 4 -6 -2 -5 -13z"/>
<path d="M1877 2182 c-12 -13 -15 -22 -8 -27 6 -3 11 1 11 9 0 9 5 16 11 16 5
0 7 -6 3 -12 -5 -9 -2 -9 9 1 18 14 23 26 8 17 -5 -4 -11 -1 -13 5 -2 6 -11 2
-21 -9z"/>
<path d="M691 2164 c0 -11 3 -14 6 -6 3 7 2 16 -1 19 -3 4 -6 -2 -5 -13z"/>
<path d="M1830 2170 c0 -5 5 -10 11 -10 5 0 7 5 4 10 -3 6 -8 10 -11 10 -2 0
-4 -4 -4 -10z"/>
<path d="M2115 2146 c-16 -6 -39 -17 -50 -23 -17 -10 -17 -12 -3 -13 9 0 20 5
23 10 10 16 45 12 45 -5 0 -9 -7 -27 -16 -40 -11 -17 -12 -25 -5 -25 7 0 10
-4 7 -8 -6 -11 56 -2 70 10 8 5 14 3 18 -7 3 -9 2 -14 -2 -11 -4 2 -14 1 -22
-5 -12 -7 -12 -9 -1 -9 7 0 11 -6 7 -15 -13 -34 12 -12 31 29 l21 43 -41 -8
c-69 -13 -68 -14 -52 39 8 26 15 48 15 50 0 4 -13 0 -45 -12z"/>
<path d="M1939 2134 c-13 -16 -12 -16 9 -3 20 12 24 12 33 -1 9 -13 10 -13 6
0 -5 22 -32 24 -48 4z"/>
<path d="M1877 2133 c-3 -5 6 -8 19 -8 13 0 24 3 24 8 0 4 -9 7 -19 7 -11 0
-22 -3 -24 -7z"/>
<path d="M1956 2098 c3 -5 10 -6 15 -3 13 9 11 12 -6 12 -8 0 -12 -4 -9 -9z"/>
<path d="M2000 2103 c8 -3 18 -10 21 -15 3 -5 9 -3 11 4 4 9 -3 14 -21 15 -14
1 -19 -1 -11 -4z"/>
<path d="M1900 2066 c0 -2 7 -9 15 -16 9 -7 15 -8 15 -2 0 5 -7 12 -15 16 -8
3 -15 4 -15 2z"/>
<path d="M1993 2056 c0 -8 5 -12 10 -9 6 4 8 0 5 -9 -4 -8 -1 -15 6 -15 18 0
12 41 -6 45 -8 2 -15 -4 -15 -12z"/>
<path d="M2040 2066 c0 -2 7 -7 16 -10 8 -3 12 -2 9 4 -6 10 -25 14 -25 6z"/>
<path d="M521 2024 c0 -11 3 -14 6 -6 3 7 2 16 -1 19 -3 4 -6 -2 -5 -13z"/>
<path d="M2047 2017 c2 -4 14 -5 25 -1 12 4 24 1 30 -7 8 -11 9 -11 5 1 -2 9
-16 15 -35 15 -17 1 -28 -3 -25 -8z"/>
<path d="M2070 1976 c7 -7 14 -6 21 1 9 9 7 12 -9 10 -14 -1 -18 -5 -12 -11z"/>
<path d="M2258 1976 c6 -12 7 -30 1 -45 -9 -25 -8 -25 6 -7 19 25 19 28 -1 52
-15 19 -15 19 -6 0z"/>
<path d="M2280 1979 c0 -5 5 -7 10 -4 6 3 10 8 10 11 0 2 -4 4 -10 4 -5 0 -10
-5 -10 -11z"/>
<path d="M446 1947 c3 -10 9 -15 12 -12 3 3 0 11 -7 18 -10 9 -11 8 -5 -6z"/>
<path d="M2054 1948 c-3 -5 -10 -6 -15 -3 -15 10 -10 -1 7 -15 12 -11 15 -11
12 0 -2 8 2 14 9 15 18 0 25 12 8 12 -9 0 -18 -4 -21 -9z"/>
<path d="M2186 1952 c-3 -5 1 -9 9 -9 8 0 12 4 9 9 -3 4 -7 8 -9 8 -2 0 -6 -4
-9 -8z"/>
<path d="M2110 1939 c0 -5 5 -7 10 -4 6 3 10 8 10 11 0 2 -4 4 -10 4 -5 0 -10
-5 -10 -11z"/>
<path d="M2125 1920 c-4 -6 -11 -7 -17 -4 -7 4 -8 2 -4 -4 10 -16 23 -15 30 3
6 17 0 20 -9 5z"/>
<path d="M2140 1891 c0 -6 5 -11 12 -11 6 0 8 -3 5 -7 -9 -8 12 -33 27 -33 6
0 4 5 -4 10 -8 5 -15 17 -15 26 0 10 -6 19 -12 21 -7 3 -13 0 -13 -6z"/>
<path d="M2215 1892 c-12 -8 -17 -44 -5 -37 6 4 22 45 17 45 -1 0 -6 -4 -12
-8z"/>
<path d="M2086 1877 c3 -10 9 -15 12 -12 3 3 0 11 -7 18 -10 9 -11 8 -5 -6z"/>
<path d="M380 1856 c0 -8 4 -17 9 -20 5 -4 7 3 4 14 -6 23 -13 26 -13 6z"/>
<path d="M1175 1860 c3 -5 8 -10 11 -10 2 0 4 5 4 10 0 6 -5 10 -11 10 -5 0
-7 -4 -4 -10z"/>
<path d="M2116 1862 c-3 -5 1 -9 9 -9 8 0 12 4 9 9 -3 4 -7 8 -9 8 -2 0 -6 -4
-9 -8z"/>
<path d="M2116 1825 c4 -8 11 -15 16 -15 6 0 5 6 -2 15 -7 8 -14 15 -16 15 -2
0 -1 -7 2 -15z"/>
<path d="M2186 1805 c10 -8 23 -15 28 -15 6 0 1 7 -10 15 -10 8 -23 15 -28 15
-6 0 -1 -7 10 -15z"/>
<path d="M998 1803 c7 -3 16 -2 19 1 4 3 -2 6 -13 5 -11 0 -14 -3 -6 -6z"/>
<path d="M325 1750 c3 -5 8 -10 11 -10 2 0 4 5 4 10 0 6 -5 10 -11 10 -5 0 -7
-4 -4 -10z"/>
<path d="M918 1753 c7 -3 16 -2 19 1 4 3 -2 6 -13 5 -11 0 -14 -3 -6 -6z"/>
<path d="M65 1718 c-22 -11 -43 -26 -47 -32 -9 -13 -11 -788 -2 -811 4 -8 19
-22 35 -31 29 -15 29 -14 35 16 7 32 10 34 104 49 51 8 48 9 -47 10 -60 1
-103 5 -103 11 0 13 29 19 130 29 47 5 70 9 53 10 -31 1 -49 21 -20 21 6 0 4
5 -6 11 -13 8 -22 7 -33 -2 -8 -6 -17 -9 -21 -5 -3 3 -2 6 3 6 5 0 8 62 7 145
-2 97 1 145 8 145 5 0 7 5 4 10 -3 6 -2 10 4 10 6 0 8 7 4 16 -5 13 -7 13 -14
2 -5 -7 -9 41 -9 115 0 78 4 127 10 127 6 0 10 6 10 14 0 9 -19 16 -60 20 -61
7 -82 19 -54 30 9 3 50 7 92 7 75 2 73 3 -16 15 -30 4 -42 9 -39 19 3 7 0 18
-6 24 -8 8 -6 15 9 26 27 20 16 18 -31 -7z m65 -718 c0 -5 -5 -10 -11 -10 -5
0 -7 5 -4 10 3 6 8 10 11 10 2 0 4 -4 4 -10z m54 -15 c-4 -8 -11 -15 -16 -15
-6 0 -5 6 2 15 7 8 14 15 16 15 2 0 1 -7 -2 -15z"/>
<path d="M2207 1719 c7 -7 15 -10 18 -7 3 3 -2 9 -12 12 -14 6 -15 5 -6 -5z"/>
<path d="M2464 1717 c16 -12 16 -14 2 -26 -9 -7 -13 -17 -10 -22 3 -5 -10 -13
-28 -17 -31 -7 -29 -7 22 -12 30 -3 54 -9 53 -15 -1 -5 -25 -14 -53 -20 -54
-11 -62 -19 -35 -39 14 -10 8 -16 -45 -46 -59 -33 -60 -35 -54 -69 10 -65 11
-65 50 -42 19 12 37 21 40 21 2 0 4 -96 4 -214 l0 -214 23 6 c19 5 20 3 10
-10 -7 -8 -10 -18 -6 -22 4 -4 0 -4 -10 0 -9 3 -17 2 -17 -4 0 -6 15 -13 33
-17 56 -11 67 -16 62 -26 -4 -5 -27 -9 -52 -9 -39 0 -44 -2 -33 -15 7 -8 16
-12 21 -9 16 10 31 -47 17 -64 -9 -10 -1 -9 28 6 24 12 44 31 48 44 7 29 8
765 0 794 -3 12 -21 28 -40 38 -42 19 -54 21 -30 3z"/>
<path d="M848 1693 c7 -3 16 -2 19 1 4 3 -2 6 -13 5 -11 0 -14 -3 -6 -6z"/>
<path d="M1075 1590 c-4 -6 39 -10 122 -9 98 1 117 3 83 10 -65 11 -198 11
-205 -1z"/>
<path d="M254 1561 c-68 -31 -105 -113 -85 -189 15 -55 45 -88 104 -118 72
-36 87 -52 87 -90 0 -57 -74 -73 -151 -33 -23 11 -44 17 -47 13 -4 -4 -2 -9 5
-11 8 -3 9 -13 2 -36 -15 -54 -11 -64 31 -81 135 -54 269 26 270 159 0 77 -40
133 -125 174 -22 10 -49 29 -60 41 -18 20 -18 24 -4 48 12 23 23 28 63 30 27
2 54 -2 59 -7 18 -18 26 -13 36 27 16 57 14 67 -22 80 -48 17 -116 14 -163 -7z"/>
<path d="M635 1568 c-138 -48 -199 -291 -115 -458 66 -129 235 -147 329 -34
90 109 83 351 -14 445 -54 54 -130 71 -200 47z m114 -113 c38 -33 55 -83 55
-165 0 -36 -6 -82 -13 -102 -14 -44 -63 -88 -95 -88 -106 0 -146 254 -56 350
35 37 68 38 109 5z"/>
<path d="M1760 1549 c-82 -34 -115 -114 -115 -279 0 -106 2 -119 29 -173 36
-75 73 -100 139 -94 38 3 56 11 82 37 51 49 70 115 70 240 0 125 -19 191 -69
239 -37 36 -93 48 -136 30z m87 -129 c7 -19 12 -82 12 -140 0 -129 -13 -174
-51 -178 -45 -5 -62 41 -62 173 -1 136 17 188 61 183 22 -2 31 -11 40 -38z"/>
<path d="M2089 1538 c-21 -14 -45 -46 -64 -83 -28 -56 -30 -67 -30 -170 1
-124 12 -175 52 -228 72 -92 184 -74 239 40 52 106 43 320 -18 405 -42 59
-120 75 -179 36z m107 -115 c22 -51 21 -236 0 -287 -20 -49 -53 -47 -79 4 -25
49 -21 252 6 293 25 39 55 35 73 -10z"/>
<path d="M1110 1517 c-30 -18 -54 -37 -53 -43 1 -5 4 -26 7 -47 l7 -39 35 21
c19 12 38 21 42 21 4 0 6 -94 4 -210 l-3 -210 50 0 51 0 0 270 0 270 -42 0
c-31 0 -59 -10 -98 -33z"/>
<path d="M1362 1385 c-61 -124 -82 -175 -82 -205 l0 -40 95 0 95 0 0 -65 0
-65 50 0 50 0 0 65 c0 63 1 65 25 65 23 0 25 4 25 45 0 41 -2 45 -25 45 l-25
0 0 160 0 160 -63 0 -62 0 -83 -165z m110 -52 l-4 -103 -44 0 c-24 0 -44 2
-44 4 0 2 17 41 39 87 21 46 41 93 45 103 11 31 12 16 8 -91z"/>
<path d="M195 1280 c10 -11 20 -20 23 -20 3 0 -3 9 -13 20 -10 11 -20 20 -23
20 -3 0 3 -9 13 -20z"/>
<path d="M1085 969 c-16 -4 44 -7 134 -8 90 0 162 1 159 4 -7 8 -260 11 -293
4z"/>
<path d="M438 913 c-27 -2 -48 -6 -48 -8 0 -10 64 -136 71 -141 14 -8 10 -26
-3 -18 -8 4 -10 3 -5 -2 5 -5 12 -9 16 -9 4 0 30 -27 58 -60 57 -69 150 -156
205 -193 21 -13 35 -29 31 -35 -3 -5 -1 -7 5 -3 6 3 41 -9 79 -28 153 -76 290
-106 453 -101 180 5 352 59 493 153 45 30 87 55 94 55 7 0 10 3 8 7 -6 10 121
131 130 122 5 -4 5 -2 1 5 -3 7 11 35 32 63 43 56 108 177 101 185 -3 2 -66 7
-140 11 l-134 7 -45 -60 c-87 -117 -208 -204 -350 -253 -89 -31 -256 -38 -360
-16 -157 33 -312 133 -407 261 l-48 65 -95 -2 c-52 -1 -116 -3 -142 -5z m356
-175 c14 -6 32 -21 40 -34 14 -20 14 -24 0 -35 -12 -10 -20 -7 -43 15 -39 38
-78 33 -102 -13 -21 -39 -11 -71 27 -92 26 -14 28 -17 15 -37 -7 -12 -14 -11
-39 2 -42 22 -62 53 -62 97 0 81 88 132 164 97z m1096 -25 c29 -32 32 -41 27
-82 -4 -37 -12 -52 -43 -78 -20 -18 -43 -33 -49 -33 -7 0 -30 26 -51 58 -21
31 -47 67 -58 79 -16 19 -17 25 -5 39 25 31 73 54 110 54 30 0 43 -7 69 -37z
m-921 -115 c-10 -19 -11 -19 -44 1 -30 17 -35 18 -46 4 -11 -12 -10 -16 1 -23
45 -26 55 -39 42 -52 -11 -11 -18 -10 -42 4 -29 16 -30 16 -41 -4 -6 -12 -7
-23 -2 -27 45 -30 53 -40 47 -54 -5 -14 -12 -13 -54 8 -27 14 -51 29 -55 35
-3 6 17 50 45 99 l51 89 54 -31 c46 -26 52 -33 44 -49z m721 68 c0 -2 2 -10 5
-18 3 -8 -8 -21 -29 -32 -30 -16 -34 -22 -25 -38 10 -18 11 -18 41 3 25 18 32
19 39 8 14 -22 11 -27 -23 -45 -32 -16 -32 -16 -18 1 13 15 13 17 1 14 -23 -8
-23 -24 -3 -49 18 -22 19 -22 51 -5 28 14 35 14 42 3 5 -7 9 -16 9 -19 0 -12
-102 -61 -110 -53 -5 5 -25 41 -45 79 -21 39 -42 76 -49 84 -7 9 -7 16 -1 18
6 2 28 14 50 27 37 22 65 32 65 22z m-594 -103 c19 -25 17 -46 -5 -74 -10 -13
-21 -45 -25 -71 -6 -39 -11 -48 -27 -48 -18 0 -20 4 -14 39 5 29 2 42 -11 56
-17 16 -18 15 -31 -29 -8 -26 -17 -45 -21 -43 -4 2 -15 7 -24 10 -15 5 -15 10
4 59 11 29 27 74 35 100 l16 46 44 -13 c25 -8 51 -22 59 -32z m511 -91 c14
-35 23 -65 21 -67 -1 -2 -12 -5 -22 -7 -15 -2 -23 6 -34 37 -8 22 -25 66 -38
98 l-22 58 21 8 c19 7 24 3 36 -28 8 -20 25 -64 38 -99z m-107 104 c0 -2 3
-11 6 -19 4 -11 -5 -17 -35 -22 -30 -5 -41 -12 -41 -24 0 -27 9 -30 42 -19 24
8 32 8 39 -3 14 -22 11 -26 -26 -33 -37 -7 -41 -18 -25 -62 8 -21 8 -29 -2
-36 -27 -17 -37 -6 -48 50 -6 31 -16 77 -21 101 -6 24 -9 45 -7 46 18 15 118
33 118 21z m-247 -22 c27 -5 37 -11 37 -25 0 -14 -7 -19 -29 -19 -35 0 -41
-13 -41 -88 0 -31 -4 -63 -9 -70 -9 -15 -47 -12 -45 4 1 5 5 44 9 87 l7 77
-26 0 c-19 0 -26 5 -26 20 0 17 7 20 43 20 23 0 59 -3 80 -6z m107 -58 c0 -35
3 -84 6 -110 6 -44 6 -46 -18 -46 -25 0 -25 1 -30 103 -3 56 -4 105 -1 110 2
4 13 7 24 7 17 0 19 -7 19 -64z"/>
<path d="M770 720 c20 -13 33 -13 25 0 -3 6 -14 10 -23 10 -15 0 -15 -2 -2
-10z"/>
<path d="M650 612 c0 -5 10 -17 22 -28 l21 -19 -18 28 c-18 28 -25 33 -25 19z"/>
<path d="M1759 713 c-13 -15 -12 -15 11 -3 34 17 36 20 18 20 -9 0 -22 -7 -29
-17z"/>
<path d="M1785 698 c-11 -6 -21 -12 -23 -14 -7 -5 27 -60 52 -83 25 -24 26
-24 46 -6 27 24 25 56 -5 89 -26 28 -40 31 -70 14z"/>
<path d="M1865 580 c-10 -11 -14 -20 -8 -20 5 0 18 9 28 20 10 11 14 20 8 20
-5 0 -18 -9 -28 -20z"/>
<path d="M900 636 c0 -3 9 -10 20 -16 11 -6 20 -8 20 -6 0 3 -9 10 -20 16 -11
6 -20 8 -20 6z"/>
<path d="M1630 630 c-13 -8 -13 -10 2 -10 9 0 20 5 23 10 8 13 -5 13 -25 0z"/>
<path d="M1714 474 c-18 -14 -18 -15 4 -4 12 6 22 13 22 15 0 8 -5 6 -26 -11z"/>
<path d="M1031 577 c2 -1 14 -11 27 -21 12 -11 22 -16 22 -13 0 10 -31 37 -42
37 -6 0 -9 -1 -7 -3z"/>
<path d="M1016 535 c-11 -29 -7 -36 17 -33 14 2 22 10 22 23 0 24 -30 32 -39
10z"/>
<path d="M1026 477 c3 -10 9 -15 12 -12 3 3 0 11 -7 18 -10 9 -11 8 -5 -6z"/>
<path d="M1581 465 c0 -5 6 -21 14 -35 8 -14 14 -20 14 -15 0 6 -6 21 -14 35
-8 14 -14 21 -14 15z"/>
<path d="M1435 550 c-3 -6 1 -7 9 -4 18 7 21 14 7 14 -6 0 -13 -4 -16 -10z"/>
<path d="M1199 503 c4 -31 6 -33 9 -13 2 14 9 31 14 38 8 9 5 12 -9 12 -16 0
-18 -5 -14 -37z"/>
<path d="M1196 449 c-8 -25 -12 -89 -5 -89 3 0 9 21 12 48 5 47 2 68 -7 41z"/>
<path d="M1342 380 c0 -14 2 -19 5 -12 2 6 2 18 0 25 -3 6 -5 1 -5 -13z"/>
<path d="M290 851 c0 -5 7 -12 16 -15 14 -5 15 -4 4 9 -14 17 -20 19 -20 6z"/>
<path d="M1627 789 c7 -7 15 -10 18 -7 3 3 -2 9 -12 12 -14 6 -15 5 -6 -5z"/>
<path d="M369 748 c-9 -18 -2 -47 14 -57 18 -12 18 -11 4 9 -9 12 -13 29 -10
36 4 11 -3 21 -8 12z"/>
<path d="M2161 694 c0 -11 3 -14 6 -6 3 7 2 16 -1 19 -3 4 -6 -2 -5 -13z"/>
<path d="M2126 657 c3 -10 9 -15 12 -12 3 3 0 11 -7 18 -10 9 -11 8 -5 -6z"/>
<path d="M2090 625 c0 -5 5 -17 10 -25 5 -8 10 -10 10 -5 0 6 -5 17 -10 25 -5
8 -10 11 -10 5z"/>
<path d="M275 600 c-3 -5 -1 -10 4 -10 6 0 11 5 11 10 0 6 -2 10 -4 10 -3 0
-8 -4 -11 -10z"/>
<path d="M260 570 c0 -5 5 -10 11 -10 5 0 7 5 4 10 -3 6 -8 10 -11 10 -2 0 -4
-4 -4 -10z"/>
<path d="M443 558 c-1 -11 1 -16 5 -12 4 5 11 12 15 15 5 3 2 9 -5 12 -9 3
-14 -3 -15 -15z"/>
<path d="M350 560 c0 -5 5 -10 11 -10 5 0 7 5 4 10 -3 6 -8 10 -11 10 -2 0 -4
-4 -4 -10z"/>
<path d="M339 525 c-2 -23 -4 -29 -12 -42 -4 -7 -1 -10 10 -8 61 12 73 16 73
25 0 6 -9 6 -25 0 -27 -10 -38 -1 -29 24 3 9 1 16 -5 16 -6 0 -12 -7 -12 -15z"/>
<path d="M2021 524 c0 -11 3 -14 6 -6 3 7 2 16 -1 19 -3 4 -6 -2 -5 -13z"/>
<path d="M448 511 c-12 -14 -11 -14 4 -3 9 8 21 11 26 9 4 -3 14 -2 21 2 9 6
5 9 -13 9 -14 0 -31 -8 -38 -17z"/>
<path d="M620 496 c0 -2 7 -7 16 -10 8 -3 12 -2 9 4 -6 10 -25 14 -25 6z"/>
<path d="M410 450 c-7 -22 -11 -43 -8 -46 4 -3 23 -1 44 5 21 6 40 8 42 6 3
-2 0 -23 -6 -47 -6 -23 -10 -44 -8 -45 2 -2 20 4 41 13 29 12 35 18 24 24 -8
6 -18 5 -23 0 -20 -20 -24 -9 -11 35 l14 45 -27 -3 c-15 -2 -35 -7 -45 -12
-26 -11 -33 1 -20 35 6 17 8 30 4 30 -4 0 -14 -18 -21 -40z"/>
<path d="M568 325 c-4 -32 -6 -61 -4 -63 6 -5 76 31 76 40 0 5 -11 1 -25 -8
-36 -23 -45 -15 -30 28 7 21 9 35 5 33 -5 -3 -10 3 -12 12 -2 10 -7 -9 -10
-42z"/>
<path d="M735 360 c-16 -7 -17 -9 -3 -9 9 -1 20 4 23 9 7 11 7 11 -20 0z"/>
<path d="M1750 334 c0 -8 5 -12 10 -9 6 4 8 11 5 16 -9 14 -15 11 -15 -7z"/>
<path d="M770 329 c0 -5 5 -7 10 -4 6 3 10 8 10 11 0 2 -4 4 -10 4 -5 0 -10
-5 -10 -11z"/>
<path d="M875 280 c-3 -6 1 -7 9 -4 18 7 21 14 7 14 -6 0 -13 -4 -16 -10z"/>
<path d="M1490 239 c0 -5 5 -7 10 -4 6 3 10 8 10 11 0 2 -4 4 -10 4 -5 0 -10
-5 -10 -11z"/>
<path d="M695 230 c-3 -6 1 -7 9 -4 18 7 21 14 7 14 -6 0 -13 -4 -16 -10z"/>
<path d="M1160 225 c-11 -13 -10 -14 4 -9 9 3 16 10 16 15 0 13 -6 11 -20 -6z"/>
<path d="M1215 219 c-4 -6 -5 -12 -2 -15 2 -3 7 2 10 11 7 17 1 20 -8 4z"/>
<path d="M1325 219 c-4 -6 -5 -12 -2 -15 2 -3 7 2 10 11 7 17 1 20 -8 4z"/>
<path d="M660 210 c-9 -6 -10 -10 -3 -10 6 0 15 5 18 10 8 12 4 12 -15 0z"/>
</g>
</svg>
