<?xml version="1.0" standalone="no"?>
<!DOCTYPE svg PUBLIC "-//W3C//DTD SVG 20010904//EN"
 "http://www.w3.org/TR/2001/REC-SVG-20010904/DTD/svg10.dtd">
<svg version="1.0" xmlns="http://www.w3.org/2000/svg"
 width="2048.000000pt" height="1536.000000pt" viewBox="0 0 2048.000000 1536.000000"
 preserveAspectRatio="xMidYMid meet">

<g transform="translate(0.000000,1536.000000) scale(0.100000,-0.100000)"
fill="#000000" stroke="none">
<path d="M10213 12656 c-17 -8 -33 -23 -36 -33 -3 -10 -9 -86 -13 -169 -5
-130 -4 -155 10 -183 29 -56 91 -66 136 -21 18 18 20 34 20 195 0 162 -2 177
-20 195 -11 11 -24 20 -29 20 -5 0 -15 2 -23 5 -7 2 -27 -2 -45 -9z m79 -33
c14 -12 18 -31 18 -79 l0 -63 -57 -41 -58 -41 -3 102 c-2 84 0 105 14 120 21
23 61 24 86 2z m18 -255 c0 -90 -14 -118 -58 -118 -43 0 -62 27 -62 84 1 50 2
52 53 87 29 20 55 35 60 32 4 -2 7 -41 7 -85z"/>
<path d="M9950 12632 l-31 -31 7 -153 c7 -176 14 -205 60 -224 40 -17 76 -6
99 30 14 21 15 45 8 190 -10 184 -15 199 -80 212 -27 5 -37 1 -63 -24z m104
-24 c16 -23 22 -114 8 -133 -12 -17 -102 -88 -106 -84 -3 2 -8 48 -12 102 -6
86 -5 100 11 117 25 28 79 27 99 -2z m20 -195 c3 -21 6 -59 6 -85 0 -55 -24
-88 -64 -88 -50 0 -86 90 -53 133 13 18 88 76 98 77 4 0 9 -17 13 -37z"/>
<path d="M10456 12637 c-21 -21 -25 -37 -30 -128 -13 -212 -13 -245 8 -267 43
-49 126 -31 144 30 15 49 23 315 10 343 -21 47 -95 59 -132 22z m100 -21 c15
-12 19 -25 17 -66 -1 -29 -5 -60 -8 -70 -7 -21 -102 -83 -114 -75 -15 9 -1
188 17 208 18 21 61 22 88 3z m7 -260 c-2 -38 -9 -78 -14 -88 -14 -26 -55 -33
-84 -14 -21 14 -25 24 -25 64 0 57 2 59 65 99 33 21 52 28 56 21 4 -6 5 -43 2
-82z"/>
<path d="M9717 12629 c-40 -23 -45 -60 -26 -207 10 -75 18 -145 19 -155 0 -28
45 -67 78 -67 16 0 41 9 56 21 22 17 26 28 26 69 0 68 -29 281 -42 306 -18 38
-74 54 -111 33z m87 -34 c8 -8 18 -40 22 -71 l7 -56 -52 -52 c-62 -61 -67 -58
-77 59 -9 87 -7 104 8 123 14 17 73 15 92 -3z m39 -261 c2 -86 1 -89 -25 -101
-31 -15 -74 -1 -82 26 -21 77 -21 80 34 133 34 33 55 47 62 40 5 -5 11 -50 11
-98z"/>
<path d="M10709 12611 c-18 -18 -29 -40 -30 -58 0 -15 -6 -84 -13 -153 -10
-99 -11 -131 -1 -156 15 -38 65 -61 102 -48 47 16 61 50 72 175 17 181 15 216
-14 244 -34 35 -78 33 -116 -4z m102 -22 c18 -18 19 -28 14 -77 -4 -31 -12
-62 -19 -68 -20 -20 -103 -64 -109 -58 -6 6 0 130 9 171 10 52 67 70 105 32z
m-6 -307 c-7 -39 -45 -67 -80 -58 -34 9 -48 40 -40 92 6 40 11 46 63 77 l57
33 3 -55 c2 -31 0 -71 -3 -89z"/>
<path d="M10974 12595 c-32 -22 -41 -56 -59 -217 -18 -156 -16 -172 27 -202
32 -22 73 -20 103 7 24 20 28 34 45 177 25 196 25 186 -9 221 -33 32 -74 38
-107 14z m84 -31 c25 -17 29 -63 12 -124 -8 -29 -20 -40 -71 -67 l-60 -31 6
56 c13 125 17 144 36 163 23 23 47 24 77 3z m-1 -256 c-5 -68 -10 -86 -28
-100 -62 -51 -124 21 -91 105 7 16 96 75 116 76 5 1 6 -35 3 -81z"/>
<path d="M11228 12549 c-29 -16 -38 -43 -68 -201 -31 -168 -29 -198 21 -223
41 -22 67 -18 98 13 23 23 31 46 50 147 38 205 38 209 3 244 -32 32 -71 40
-104 20z m81 -36 c26 -22 29 -42 12 -108 -12 -48 -15 -51 -72 -77 l-59 -27 0
31 c0 17 5 60 11 96 17 94 58 126 108 85z m-18 -280 c-11 -57 -36 -93 -67 -93
-7 0 -25 10 -40 23 -26 23 -27 25 -15 74 12 49 15 52 69 76 l57 24 3 -23 c2
-12 -2 -49 -7 -81z"/>
<path d="M9569 12519 c0 -8 -1 -32 0 -54 1 -36 -4 -44 -54 -88 l-55 -49 0 28
c0 19 -3 25 -10 18 -18 -18 10 -154 36 -181 49 -49 134 -11 134 58 0 35 -39
271 -46 278 -2 2 -4 -2 -5 -10z m21 -178 c16 -96 11 -123 -24 -140 -46 -22
-78 1 -90 62 l-9 48 48 49 c27 28 52 50 56 50 4 0 12 -31 19 -69z"/>
<path d="M11471 12473 c-16 -13 -32 -59 -61 -168 -22 -82 -40 -160 -40 -173 0
-13 13 -37 29 -53 48 -48 115 -34 139 28 26 64 83 305 77 324 -18 55 -99 79
-144 42z m105 -38 c16 -24 16 -30 -1 -85 -18 -59 -18 -60 -79 -83 -34 -13 -63
-23 -65 -21 -5 4 30 156 42 179 22 44 77 49 103 10z m-30 -199 c-23 -123 -51
-164 -102 -152 -37 10 -49 46 -34 100 11 40 17 46 64 64 73 30 79 28 72 -12z"/>
<path d="M11716 12396 c-24 -23 -116 -290 -116 -334 0 -29 36 -70 69 -77 43
-9 85 17 104 62 29 75 87 271 87 297 0 67 -96 101 -144 52z m96 -23 c22 -20
22 -54 0 -112 -14 -35 -24 -46 -52 -56 -71 -24 -90 -26 -90 -11 0 34 52 176
68 185 25 15 53 13 74 -6z m-26 -190 c-3 -10 -12 -44 -21 -75 -19 -68 -36 -88
-75 -88 -57 0 -75 46 -42 109 13 27 28 39 67 52 65 23 78 23 71 2z"/>
<path d="M9280 12335 c-24 -24 -41 -47 -38 -50 3 -3 24 17 48 45 23 27 40 50
38 50 -2 0 -24 -20 -48 -45z"/>
<path d="M11985 12331 c-33 -14 -42 -30 -100 -186 -61 -162 -63 -189 -18 -225
34 -26 76 -25 107 3 33 29 139 307 130 341 -12 49 -76 85 -119 67z m84 -62
c14 -25 13 -31 -15 -85 -28 -57 -30 -58 -91 -75 -35 -9 -63 -15 -63 -14 0 12
63 181 71 192 20 24 81 13 98 -18z m-56 -201 c-34 -116 -58 -146 -109 -134
-39 10 -50 46 -29 100 16 41 23 47 59 57 32 8 75 21 93 28 1 1 -5 -23 -14 -51z"/>
<path d="M9031 12278 c-24 -27 -41 -51 -38 -54 2 -3 24 18 47 46 55 66 48 73
-9 8z"/>
<path d="M9369 12285 c-3 -3 -4 -27 -1 -54 4 -44 2 -51 -21 -66 -18 -11 -36
-15 -57 -10 -31 7 -43 -8 -14 -19 58 -22 114 18 113 81 0 42 -11 77 -20 68z"/>
<path d="M8806 12219 c-21 -28 -36 -52 -34 -55 2 -2 21 19 42 47 21 27 37 52
34 54 -2 2 -21 -18 -42 -46z"/>
<path d="M12201 12213 c-28 -24 -141 -284 -141 -326 0 -72 94 -109 144 -56 32
33 139 283 138 321 -2 66 -89 104 -141 61z m93 -29 c22 -22 20 -64 -7 -115
-22 -41 -27 -44 -87 -56 -35 -7 -64 -12 -66 -11 -6 7 68 175 83 186 23 17 58
15 77 -4z m-45 -201 c-5 -16 -22 -53 -37 -83 -24 -49 -31 -55 -62 -58 -58 -6
-79 52 -41 114 15 25 30 34 68 42 81 16 83 16 72 -15z"/>
<path d="M8581 12139 c-17 -28 -30 -53 -28 -56 3 -2 19 19 36 48 18 28 30 53
28 55 -2 2 -18 -19 -36 -47z"/>
<path d="M12436 12099 c-16 -12 -57 -81 -98 -162 -64 -128 -70 -145 -62 -177
7 -26 18 -39 46 -53 33 -16 40 -16 71 -3 30 12 43 31 106 154 83 163 88 196
40 236 -37 32 -68 33 -103 5z m94 -38 c16 -31 12 -59 -16 -106 -17 -30 -33
-45 -52 -49 -78 -14 -102 -16 -102 -8 0 16 61 146 78 165 21 24 78 23 92 -2z
m-50 -166 c0 -14 -72 -150 -83 -157 -26 -16 -66 -8 -83 17 -19 29 -14 59 18
97 22 27 32 30 141 47 4 0 7 -1 7 -4z"/>
<path d="M8342 12043 c-18 -31 -31 -58 -28 -60 2 -2 18 21 36 52 18 31 31 58
29 60 -2 2 -19 -22 -37 -52z"/>
<path d="M8123 11939 c-18 -32 -29 -59 -25 -59 8 0 66 109 61 114 -2 3 -19
-22 -36 -55z"/>
<path d="M12662 11973 c-26 -23 -161 -265 -168 -301 -7 -34 33 -87 70 -94 55
-11 79 13 161 158 87 153 95 186 55 229 -28 30 -87 34 -118 8z m84 -21 c28
-18 35 -51 19 -85 -32 -67 -55 -84 -122 -91 -71 -6 -69 -13 -19 84 46 89 84
118 122 92z m-46 -187 c0 -3 -16 -37 -35 -74 -21 -43 -43 -72 -55 -76 -33 -10
-70 3 -82 30 -9 20 -6 31 16 69 21 36 33 46 59 49 53 6 97 7 97 2z"/>
<path d="M9915 11974 c-362 -35 -574 -74 -880 -161 -821 -232 -1584 -735
-2130 -1402 -240 -293 -451 -630 -596 -954 -50 -112 -56 -132 -41 -134 22 -3
756 -31 1042 -39 l216 -7 59 94 c342 541 883 987 1481 1223 686 270 1428 294
2125 70 672 -215 1257 -661 1653 -1257 l91 -138 150 6 c83 3 285 10 450 15
554 18 660 22 667 26 8 5 -52 144 -127 295 -314 626 -791 1180 -1370 1589
-331 234 -748 443 -1139 572 -243 80 -554 148 -836 184 -118 15 -711 28 -815
18z m298 -141 c4 -38 7 -87 7 -110 l0 -42 -52 -5 c-29 -3 -84 -8 -122 -12
l-68 -6 6 -61 c3 -34 15 -186 26 -337 11 -151 22 -298 25 -326 l6 -51 -121 -8
c-67 -4 -123 -5 -125 -3 -2 1 -13 120 -24 263 -38 465 -41 499 -44 502 -2 1
-56 -2 -121 -8 -65 -5 -119 -9 -121 -7 -1 2 -6 53 -10 114 l-7 112 59 6 c32 3
150 13 263 21 113 8 225 16 250 18 25 2 72 4 106 5 l61 2 6 -67z m323 -15 c-3
-40 -8 -206 -11 -368 -3 -162 -8 -358 -11 -434 l-7 -139 -120 7 c-66 3 -122 8
-124 10 -4 4 14 660 23 874 l6 122 125 0 125 0 -6 -72z m354 27 c162 -27 435
-77 438 -80 2 -2 -5 -51 -14 -109 -15 -88 -21 -106 -36 -106 -10 0 -81 11
-160 25 -78 14 -145 22 -149 17 -7 -7 -31 -134 -26 -138 1 -1 70 -14 152 -29
83 -15 152 -29 154 -30 3 -3 -26 -185 -34 -211 -2 -8 -51 -3 -159 15 l-155 27
-5 -25 c-3 -14 -19 -102 -36 -195 -17 -93 -32 -171 -34 -173 -3 -3 -237 37
-244 42 -3 2 166 959 174 983 2 7 12 11 21 8 10 -3 61 -12 113 -21z m-1700
-126 c110 -24 190 -125 198 -254 4 -63 1 -80 -22 -131 l-27 -58 45 -45 c24
-25 103 -113 175 -195 l132 -150 -123 -43 c-67 -24 -125 -43 -129 -43 -3 0
-44 44 -90 98 -157 182 -178 202 -215 202 -18 0 -35 -4 -38 -9 -3 -4 21 -88
54 -186 33 -98 59 -180 57 -181 -5 -5 -230 -84 -232 -81 -1 1 -73 211 -160
467 -87 256 -159 470 -162 476 -2 6 57 32 144 62 244 85 290 93 393 71z m2405
-50 c73 -26 114 -46 112 -53 -3 -7 -73 -215 -157 -463 -84 -247 -156 -456
-161 -464 -6 -11 -29 -7 -124 25 -72 23 -115 42 -112 49 2 7 75 222 162 480
87 257 159 467 161 467 1 0 55 -19 119 -41z m591 -255 c145 -74 264 -138 264
-140 0 -5 -90 -187 -95 -192 -2 -2 -71 30 -154 72 -82 42 -153 76 -158 76 -9
0 -78 -119 -72 -124 2 -2 67 -36 144 -76 77 -40 142 -75 144 -77 6 -4 -91
-203 -99 -203 -3 0 -70 34 -149 75 -80 41 -146 73 -146 72 -16 -21 -75 -137
-75 -145 0 -7 72 -48 160 -92 l160 -80 -50 -100 c-28 -55 -55 -100 -61 -100
-15 0 -539 270 -539 277 0 9 453 893 458 893 2 0 123 -61 268 -136z m-3708 -5
c29 -50 50 -95 47 -99 -3 -4 -64 -42 -137 -84 -73 -42 -139 -80 -146 -85 -11
-6 -7 -20 18 -65 18 -31 36 -58 41 -61 4 -3 72 31 150 75 77 45 142 80 144 78
1 -2 27 -46 57 -99 l55 -95 -143 -83 c-79 -46 -144 -85 -144 -88 0 -2 18 -36
41 -74 31 -54 45 -69 57 -64 9 3 78 42 154 86 75 43 140 79 145 79 8 0 105
-163 111 -186 3 -10 -239 -156 -460 -278 -66 -36 -66 -37 -81 -16 -13 19 -15
18 -51 -35 -78 -118 -174 -202 -302 -262 -67 -32 -87 -37 -172 -41 -81 -3
-107 -1 -161 18 -152 51 -278 180 -341 345 -31 82 -31 215 -1 300 53 150 210
306 371 369 l45 18 31 -36 c17 -19 51 -61 76 -94 l46 -58 -71 -24 c-279 -95
-361 -320 -183 -503 25 -27 65 -57 89 -67 59 -27 144 -26 205 2 64 30 153 121
191 195 17 34 35 64 40 67 5 3 44 -31 87 -77 42 -45 71 -71 64 -57 -7 14 -112
198 -233 410 -121 211 -216 386 -211 387 5 2 119 68 254 147 135 79 250 144
255 145 6 1 34 -40 63 -90z m4384 -435 c126 -112 194 -193 237 -284 23 -49 26
-67 26 -170 0 -114 0 -116 -40 -195 -55 -110 -173 -231 -271 -277 -58 -27 -83
-33 -161 -36 -109 -5 -193 16 -290 74 -70 42 -318 251 -318 268 0 6 146 181
325 387 l325 376 24 -18 c13 -11 77 -67 143 -125z"/>
<path d="M8999 11478 l-37 -9 26 -80 c15 -43 31 -79 36 -79 27 0 98 45 112 72
14 27 14 32 -3 66 -16 33 -22 37 -58 39 -22 1 -56 -3 -76 -9z"/>
<path d="M12557 10568 l-176 -203 21 -22 c27 -29 125 -79 168 -87 63 -11 136
19 202 81 102 98 133 198 90 295 -19 45 -101 138 -121 138 -5 0 -88 -91 -184
-202z"/>
<path d="M7897 11814 c-37 -74 -33 -83 4 -10 17 32 29 60 27 62 -2 2 -16 -21
-31 -52z"/>
<path d="M12881 11833 c-17 -16 -64 -82 -106 -147 -55 -88 -75 -128 -75 -153
0 -73 89 -110 143 -60 13 12 59 76 101 143 89 142 96 175 45 218 -39 33 -71
33 -108 -1z m93 -29 c24 -23 20 -52 -15 -106 -28 -44 -35 -48 -73 -50 -36 -1
-37 -2 -8 -5 17 -2 32 -8 32 -13 0 -11 -57 -107 -78 -132 -32 -38 -102 -10
-102 40 0 41 45 92 83 93 30 2 30 2 5 6 l-28 4 24 47 c45 89 83 132 115 132
16 0 37 -7 45 -16z"/>
<path d="M7681 11694 c-13 -30 -21 -57 -19 -60 3 -2 15 21 27 52 28 74 21 80
-8 8z"/>
<path d="M13099 11700 c-20 -12 -187 -243 -200 -277 -13 -34 -2 -70 28 -93 29
-22 80 -26 104 -7 16 13 170 221 188 256 41 76 -46 164 -120 121z m81 -40 c29
-29 25 -56 -16 -111 l-36 -49 -69 0 c-53 0 -68 3 -63 13 23 39 89 132 105 148
25 25 54 24 79 -1z m-70 -178 c0 -11 -79 -125 -94 -134 -19 -13 -48 -9 -68 9
-26 23 -22 66 8 102 24 29 31 31 90 31 35 0 64 -4 64 -8z"/>
<path d="M7487 11568 c-10 -33 -16 -62 -14 -64 2 -2 12 23 22 56 10 33 16 62
14 64 -2 3 -12 -23 -22 -56z"/>
<path d="M13317 11543 c-22 -6 -215 -248 -223 -280 -15 -56 27 -107 87 -105
40 1 46 7 161 150 111 139 119 163 69 213 -28 28 -51 33 -94 22z m68 -48 c32
-31 31 -43 -3 -91 -46 -62 -53 -66 -121 -58 -34 3 -61 9 -61 12 0 2 23 36 51
73 71 97 92 107 134 64z m-78 -169 c6 -6 -72 -115 -91 -128 -19 -13 -59 -9
-78 9 -27 24 -22 58 14 99 32 36 33 36 91 31 32 -3 61 -8 64 -11z"/>
<path d="M7277 11410 c-10 -34 -16 -65 -13 -67 6 -6 38 106 34 119 -2 6 -12
-17 -21 -52z"/>
<path d="M13494 11377 c-31 -17 -211 -228 -224 -261 -22 -59 41 -126 104 -110
18 4 64 49 136 133 97 111 110 130 110 163 0 64 -72 106 -126 75z m76 -37 c30
-30 24 -60 -19 -111 l-40 -46 -58 5 c-32 2 -62 8 -67 13 -9 8 62 102 107 142
25 23 52 22 77 -3z m-122 -160 c23 0 42 -4 42 -9 0 -18 -98 -128 -118 -133
-35 -10 -67 14 -70 51 -3 27 3 40 30 68 23 24 39 32 53 29 11 -3 39 -6 63 -6z"/>
<path d="M7107 11303 c-8 -15 -29 -114 -25 -118 2 -3 11 25 20 60 14 60 16 76
5 58z"/>
<path d="M13563 11087 c-114 -113 -123 -126 -123 -160 0 -51 35 -87 86 -87 34
0 47 10 156 118 98 97 120 123 124 154 6 32 2 41 -24 68 -22 21 -40 30 -63 30
-29 0 -49 -16 -156 -123z m197 73 c28 -28 25 -54 -11 -95 -44 -49 -61 -57
-118 -49 -83 11 -84 16 -6 94 75 75 100 85 135 50z m-105 -160 c17 -6 13 -14
-39 -69 -63 -65 -93 -76 -128 -44 -28 25 -22 61 17 100 33 33 37 34 82 27 26
-4 57 -10 68 -14z"/>
<path d="M6916 11129 c-10 -31 -23 -110 -17 -104 8 8 31 109 25 114 -2 2 -6
-2 -8 -10z"/>
<path d="M13773 10932 c-176 -160 -194 -193 -134 -253 53 -53 75 -44 215 87
129 120 146 147 127 195 -12 34 -33 49 -74 56 -33 5 -41 0 -134 -85z m157 40
c37 -30 30 -70 -21 -115 -41 -37 -45 -38 -94 -31 -87 12 -89 14 -46 59 56 59
110 105 125 105 8 0 24 -8 36 -18z m-126 -155 l48 -12 -65 -62 c-70 -67 -94
-76 -127 -43 -29 29 -25 57 14 96 37 37 52 39 130 21z"/>
<path d="M6740 10943 c0 -16 -2 -46 -5 -68 -8 -59 3 -29 13 38 5 31 5 57 0 57
-4 0 -8 -12 -8 -27z"/>
<path d="M14040 10813 c-18 -7 -227 -177 -252 -206 -26 -28 -23 -89 5 -114 32
-30 63 -37 96 -20 56 28 259 206 266 234 16 65 -54 129 -115 106z m68 -45 c7
-7 12 -27 12 -45 0 -27 -8 -38 -46 -68 -26 -19 -51 -35 -56 -35 -25 0 -119 33
-116 41 2 4 32 33 68 64 67 56 111 70 138 43z m-150 -144 l55 -16 -49 -44
c-71 -64 -99 -77 -127 -63 -49 26 -50 66 -2 108 41 36 48 37 123 15z"/>
<path d="M6583 10725 c0 -38 2 -53 4 -32 2 20 2 52 0 70 -2 17 -4 1 -4 -38z"/>
<path d="M14190 10613 c-27 -11 -248 -182 -264 -205 -33 -46 -6 -118 49 -132
37 -9 77 12 204 111 77 59 118 97 124 116 21 65 -50 134 -113 110z m76 -62
c17 -34 4 -61 -49 -99 l-47 -34 -66 22 c-36 12 -62 26 -57 31 4 4 37 31 73 59
54 42 71 50 100 48 25 -2 38 -10 46 -27z m-174 -117 c32 -9 58 -20 58 -24 0
-11 -112 -96 -136 -104 -27 -8 -74 28 -74 56 0 21 63 88 83 88 6 0 37 -7 69
-16z"/>
<path d="M6423 10530 c0 -41 2 -58 4 -37 2 20 2 54 0 75 -2 20 -4 3 -4 -38z"/>
<path d="M10215 10369 c-62 -50 -90 -79 -50 -51 35 24 112 91 105 91 -3 0 -27
-18 -55 -40z"/>
<path d="M6283 10335 c0 -38 2 -53 4 -32 2 20 2 52 0 70 -2 17 -4 1 -4 -38z"/>
<path d="M14196 10310 c-72 -50 -133 -96 -138 -103 -12 -18 -9 -80 5 -98 16
-21 51 -39 76 -39 25 0 286 173 300 199 33 61 -8 131 -76 131 -31 -1 -61 -17
-167 -90z m206 43 c39 -35 14 -85 -64 -126 -33 -17 -35 -17 -97 6 l-64 24 79
56 c83 59 115 68 146 40z m-164 -129 c28 -10 52 -21 52 -25 0 -10 -135 -99
-150 -99 -30 0 -60 30 -60 61 0 23 9 35 42 59 23 17 47 29 52 27 6 -3 35 -13
64 -23z"/>
<path d="M9820 10373 c0 -5 -25 -35 -55 -67 -54 -58 -70 -81 -40 -56 33 27
116 130 106 130 -6 0 -11 -3 -11 -7z"/>
<path d="M10625 10324 c-38 -24 -66 -44 -61 -44 9 0 146 81 146 86 0 9 -19 0
-85 -42z"/>
<path d="M9400 10270 c0 -6 -18 -38 -40 -72 -23 -33 -39 -62 -37 -65 3 -2 22
24 44 59 56 89 55 88 44 88 -6 0 -11 -5 -11 -10z"/>
<path d="M11040 10224 c-41 -18 -68 -33 -60 -33 17 0 161 67 145 67 -5 0 -44
-15 -85 -34z"/>
<path d="M6147 10125 c3 -38 7 -72 9 -74 7 -8 2 84 -7 114 -5 19 -6 4 -2 -40z"/>
<path d="M14337 10105 c-76 -48 -145 -98 -154 -111 -19 -30 -11 -84 18 -110
40 -36 84 -25 209 55 146 93 170 115 170 157 0 41 -35 82 -75 90 -25 4 -52 -9
-168 -81z m178 43 c29 -13 43 -53 28 -77 -5 -9 -28 -28 -49 -44 -44 -31 -71
-31 -144 0 l-44 20 74 50 c41 27 82 53 90 56 8 3 16 6 17 6 1 1 14 -4 28 -11z
m-151 -137 l60 -27 -72 -48 c-43 -29 -80 -46 -93 -44 -31 4 -63 50 -54 77 5
17 79 72 95 70 3 0 32 -13 64 -28z"/>
<path d="M8962 10032 c-18 -42 -32 -81 -32 -87 1 -5 17 28 36 74 19 46 33 85
31 87 -2 2 -18 -31 -35 -74z"/>
<path d="M11480 10084 c-20 -7 -26 -13 -15 -12 31 0 71 13 60 19 -6 3 -26 0
-45 -7z"/>
<path d="M11385 10063 c-11 -3 -24 -9 -29 -14 -8 -7 45 3 79 16 15 5 -27 4
-50 -2z"/>
<path d="M6022 9950 c0 -14 3 -45 7 -70 6 -34 9 -37 9 -15 1 17 -3 48 -7 70
-6 25 -9 31 -9 15z"/>
<path d="M14450 9875 c-74 -42 -141 -83 -147 -92 -39 -52 5 -137 70 -137 35 0
281 129 312 164 27 30 22 90 -10 117 -43 38 -77 30 -225 -52z m204 32 c30 -22
18 -77 -23 -104 -56 -38 -78 -39 -143 -7 l-59 29 78 47 c81 48 117 57 147 35z
m-177 -119 c30 -12 52 -27 50 -32 -5 -15 -128 -86 -149 -86 -29 0 -60 38 -56
68 3 27 57 72 87 72 8 0 39 -10 68 -22z"/>
<path d="M8621 9874 c0 -11 3 -14 6 -6 3 7 2 16 -1 19 -3 4 -6 -2 -5 -13z"/>
<path d="M11853 9853 c9 -2 23 -2 30 0 6 3 -1 5 -18 5 -16 0 -22 -2 -12 -5z"/>
<path d="M5224 9827 c3 -13 12 -40 21 -60 13 -33 19 -37 50 -37 19 0 35 2 35
5 0 3 -19 30 -41 60 -44 58 -76 73 -65 32z"/>
<path d="M8611 9834 c0 -11 3 -14 6 -6 3 7 2 16 -1 19 -3 4 -6 -2 -5 -13z"/>
<path d="M11717 9843 c-3 -5 16 -7 41 -5 73 5 82 10 20 11 -31 0 -59 -2 -61
-6z"/>
<path d="M15202 9772 l-52 -77 36 -9 c20 -5 39 -5 44 0 14 16 52 143 45 154
-11 18 -19 10 -73 -68z"/>
<path d="M8601 9794 c0 -11 3 -14 6 -6 3 7 2 16 -1 19 -3 4 -6 -2 -5 -13z"/>
<path d="M8587 9751 c-4 -17 -3 -21 5 -13 5 5 8 16 6 23 -3 8 -7 3 -11 -10z"/>
<path d="M5911 9750 c0 -8 6 -40 14 -70 l15 -55 -6 49 c-6 49 -23 105 -23 76z"/>
<path d="M14556 9651 c-76 -37 -145 -76 -152 -86 -39 -53 3 -135 70 -135 41 0
292 119 319 151 43 53 1 140 -67 138 -17 0 -93 -31 -170 -68z m206 22 c23 -21
23 -65 1 -85 -10 -8 -37 -23 -60 -33 -41 -17 -45 -17 -80 -1 -21 9 -49 25 -62
35 l-23 18 78 41 c86 45 118 51 146 25z m-134 -141 c4 -14 -112 -72 -144 -72
-34 0 -64 26 -64 54 0 31 11 43 60 65 l44 19 50 -29 c28 -15 52 -32 54 -37z"/>
<path d="M4739 9645 c-81 -42 -174 -125 -189 -169 -7 -23 -9 -558 -5 -1834 5
-1987 0 -1829 69 -1890 57 -50 226 -142 260 -142 10 0 53 110 60 154 1 6 7 20
13 31 6 11 18 43 27 71 19 57 32 64 122 64 l44 0 0 66 c0 64 -1 66 -22 61 -13
-3 -116 -9 -230 -13 l-208 -7 0 56 0 55 38 6 c20 3 161 13 312 21 151 9 299
18 328 21 l52 5 0 148 0 147 -35 13 c-19 7 -35 19 -35 27 0 8 16 84 35 168
l35 154 0 532 c0 476 -2 538 -17 588 -24 79 -24 321 0 408 14 53 17 112 17
397 l0 334 -162 7 c-90 4 -248 14 -353 22 -104 7 -196 14 -202 14 -9 0 -13 19
-13 60 l0 60 63 -4 c34 -3 137 -8 230 -12 l167 -6 0 60 0 59 -46 7 c-26 3 -64
6 -84 6 -95 0 -93 -2 -146 151 -27 76 -51 139 -54 139 -3 -1 -35 -16 -71 -35z
m-9 -1995 l0 -1220 240 0 c153 0 240 -4 240 -10 0 -6 -92 -10 -255 -10 l-255
0 0 1230 c0 1087 2 1230 15 1230 13 0 15 -142 15 -1220z"/>
<path d="M15681 9657 c-4 -12 -25 -73 -47 -135 -21 -63 -46 -118 -54 -122 -14
-7 -98 -15 -372 -35 l-88 -7 0 -60 0 -60 33 5 c17 4 130 9 250 13 l217 7 0
-55 c0 -68 19 -62 -262 -79 l-208 -13 0 -160 0 -161 -193 -99 c-105 -54 -193
-100 -195 -101 -3 -3 79 -428 84 -434 2 -2 95 47 207 108 112 61 207 111 210
111 4 0 7 -436 7 -970 l0 -970 230 0 c198 0 230 -2 230 -15 0 -13 -34 -15
-245 -15 l-245 0 -2 974 -3 974 -42 -25 -43 -25 0 -1054 0 -1053 33 -5 c17 -3
93 -8 167 -11 74 -3 165 -8 203 -12 l67 -6 0 -59 0 -58 -137 5 c-76 2 -189 7
-250 11 l-113 6 0 -59 0 -59 188 -13 c104 -6 205 -14 225 -18 l36 -5 47 -140
c26 -77 53 -142 60 -145 20 -7 150 65 205 115 27 24 57 58 65 74 13 25 15 246
15 1833 0 2024 7 1841 -74 1911 -41 35 -128 87 -173 104 -21 8 -26 6 -33 -13z"/>
<path d="M8285 9610 c-3 -5 -1 -10 4 -10 6 0 11 5 11 10 0 6 -2 10 -4 10 -3 0
-8 -4 -11 -10z"/>
<path d="M8283 9540 c0 -30 2 -43 4 -27 2 15 2 39 0 55 -2 15 -4 2 -4 -28z"/>
<path d="M12098 9573 c18 -2 45 -2 60 0 15 2 0 4 -33 4 -33 0 -45 -2 -27 -4z"/>
<path d="M12198 9563 c7 -3 16 -2 19 1 4 3 -2 6 -13 5 -11 0 -14 -3 -6 -6z"/>
<path d="M5816 9469 c8 -35 19 -68 24 -73 10 -10 -20 116 -31 128 -4 5 -1 -20
7 -55z"/>
<path d="M8272 9460 c0 -14 2 -19 5 -12 2 6 2 18 0 25 -3 6 -5 1 -5 -13z"/>
<path d="M14656 9419 c-133 -56 -191 -89 -156 -89 8 0 37 9 65 19 45 17 53 18
78 4 16 -8 31 -12 34 -10 2 3 -5 8 -16 12 -12 3 -21 11 -21 16 0 14 127 70
171 76 32 5 39 2 54 -21 11 -16 15 -35 11 -51 -7 -28 17 -37 28 -9 19 49 -28
115 -81 113 -15 0 -91 -27 -167 -60z"/>
<path d="M7995 9280 c3 -5 8 -10 11 -10 2 0 4 5 4 10 0 6 -5 10 -11 10 -5 0
-7 -4 -4 -10z"/>
<path d="M12335 9270 c-4 -6 3 -10 14 -10 25 0 27 6 6 13 -8 4 -17 2 -20 -3z"/>
<path d="M9840 9065 l0 -55 585 0 585 0 0 55 0 55 -585 0 -585 0 0 -55z"/>
<path d="M6025 8914 c-105 -19 -231 -64 -302 -105 -88 -52 -192 -162 -240
-255 -63 -120 -77 -185 -77 -354 -1 -123 2 -156 21 -215 47 -149 153 -280 305
-379 46 -30 171 -97 278 -149 218 -106 279 -151 316 -231 27 -59 30 -103 10
-170 -37 -121 -131 -186 -283 -194 -143 -8 -325 34 -501 114 -41 19 -78 34
-83 34 -5 0 -9 -11 -9 -24 0 -13 -20 -113 -45 -222 -25 -109 -44 -203 -41
-210 7 -18 177 -82 290 -109 151 -37 305 -50 437 -36 320 34 558 179 673 411
63 128 79 210 74 375 -4 107 -9 144 -31 206 -67 194 -204 338 -422 443 -38 19
-131 64 -206 99 -142 68 -241 144 -276 210 -25 49 -20 139 11 191 35 60 66 82
149 107 125 39 321 15 511 -62 42 -17 78 -29 80 -28 1 2 23 101 49 219 42 197
45 216 30 228 -29 21 -173 73 -262 93 -117 27 -347 34 -456 13z"/>
<path d="M7754 8900 c-335 -76 -605 -340 -729 -713 -129 -390 -108 -852 56
-1196 156 -328 394 -520 716 -576 370 -65 729 72 945 359 169 226 254 489 265
823 12 336 -52 625 -190 859 -67 114 -221 273 -323 333 -84 49 -202 94 -307
115 -106 22 -326 20 -433 -4z m410 -464 c225 -111 350 -429 333 -841 -10 -216
-60 -399 -147 -532 -167 -255 -471 -295 -675 -89 -273 277 -300 961 -51 1310
100 140 213 199 374 192 82 -3 101 -7 166 -40z"/>
<path d="M10327 8910 c-293 -53 -511 -238 -610 -515 -58 -165 -76 -439 -37
-590 91 -357 414 -572 769 -512 109 18 204 61 269 120 l43 41 -7 -30 c-11 -49
-63 -169 -99 -228 -74 -123 -165 -206 -291 -266 -106 -50 -210 -71 -374 -76
l-145 -4 -3 -220 -2 -220 133 0 c407 0 713 113 935 344 136 142 220 292 286
509 143 471 100 1011 -104 1320 -141 215 -337 322 -605 332 -60 2 -132 0 -158
-5z m192 -416 c65 -19 133 -79 168 -147 55 -110 90 -355 64 -450 -18 -64 -77
-135 -141 -171 -51 -29 -62 -31 -156 -31 -93 0 -104 2 -141 27 -95 63 -145
178 -151 349 -6 162 24 260 105 350 73 81 151 103 252 73z"/>
<path d="M12040 8905 c-350 -97 -574 -453 -631 -1004 -15 -143 -6 -520 15
-652 75 -468 250 -726 556 -821 63 -19 97 -23 215 -23 162 0 215 11 335 67 70
33 100 56 170 127 70 70 95 104 137 186 28 55 62 136 77 180 121 371 124 1006
6 1386 -47 154 -109 265 -196 358 -87 93 -157 138 -269 177 -69 23 -99 28
-220 31 -103 2 -154 -1 -195 -12z m239 -444 c104 -54 180 -216 223 -476 20
-127 17 -545 -6 -670 -55 -301 -163 -476 -293 -475 -132 1 -232 167 -279 460
-8 52 -18 176 -21 275 -20 610 147 1003 376 886z"/>
<path d="M13772 8906 c-108 -27 -200 -82 -298 -180 -135 -135 -215 -285 -275
-512 -99 -376 -87 -911 27 -1254 130 -388 381 -575 749 -557 200 10 332 64
456 187 160 158 255 397 295 745 20 177 15 605 -10 760 -48 296 -133 494 -275
636 -88 88 -200 150 -316 174 -85 18 -280 18 -353 1z m232 -440 c155 -65 249
-369 249 -806 -1 -286 -35 -484 -113 -647 -109 -225 -295 -226 -400 -2 -71
152 -104 360 -103 654 0 434 85 719 238 803 28 16 89 15 129 -2z"/>
<path d="M9840 6250 l0 -60 585 0 585 0 0 53 0 54 -247 6 c-137 4 -400 7 -585
7 l-338 0 0 -60z"/>
<path d="M7240 6029 c-457 -16 -963 -38 -968 -44 -3 -3 43 -101 101 -218 228
-455 487 -810 853 -1167 687 -671 1536 -1077 2504 -1197 182 -22 774 -26 940
-5 875 108 1599 406 2250 927 427 342 769 744 1051 1235 76 133 222 430 215
438 -4 4 -690 29 -1031 37 l-250 6 -73 -110 c-319 -483 -794 -880 -1338 -1122
-629 -279 -1344 -341 -2021 -174 -762 188 -1420 655 -1872 1328 -47 71 -54 77
-84 75 -18 0 -142 -5 -277 -9z m696 -668 c120 -40 274 -167 336 -279 26 -46
32 -51 42 -36 11 15 30 6 177 -79 90 -52 208 -119 261 -149 l97 -54 -55 -97
-55 -97 -42 24 c-168 99 -253 146 -262 146 -5 0 -25 -28 -44 -62 l-33 -61 22
-17 c12 -9 73 -45 136 -79 63 -35 117 -67 120 -72 6 -10 -97 -200 -106 -194
-122 71 -274 155 -280 155 -13 0 -92 -139 -86 -149 3 -5 71 -46 151 -92 80
-45 148 -85 150 -89 5 -8 -98 -190 -108 -190 -13 0 -527 292 -527 299 0 6 264
476 377 670 l26 45 -44 -36 -44 -37 -43 84 c-97 188 -254 267 -397 199 -55
-25 -132 -105 -158 -162 -69 -152 35 -322 246 -403 31 -12 57 -25 57 -30 0
-13 -151 -179 -162 -179 -6 0 -42 17 -82 37 -100 53 -230 183 -278 280 -104
208 -64 410 115 584 136 133 321 178 493 120z m4877 8 c129 -43 249 -155 320
-298 42 -84 42 -85 42 -196 0 -111 0 -112 -42 -196 -23 -46 -61 -106 -84 -132
-51 -59 -288 -269 -299 -265 -6 2 -607 688 -648 740 -12 15 2 30 112 126 220
192 310 239 469 241 44 1 89 -6 130 -20z m-724 -460 c31 -52 50 -94 45 -99 -5
-5 -73 -46 -151 -92 l-142 -84 35 -62 c19 -34 38 -62 42 -62 3 0 68 36 143 80
75 44 139 80 142 80 7 0 120 -191 115 -194 -2 -2 -67 -40 -145 -86 l-141 -82
45 -74 c24 -41 46 -74 48 -74 2 0 72 41 155 90 83 50 153 90 155 90 3 0 30
-43 61 -96 47 -80 54 -98 43 -109 -30 -28 -514 -304 -521 -297 -10 10 -499
844 -501 855 -2 9 491 305 508 306 6 1 35 -40 64 -90z m-3006 -238 c97 -32
196 -70 219 -84 50 -29 110 -90 131 -130 l15 -29 7 52 7 52 37 -5 c20 -3 181
-22 359 -43 177 -21 327 -41 332 -44 6 -4 5 -45 -2 -114 l-12 -108 -56 6
c-164 16 -190 18 -190 10 -1 -31 -89 -756 -92 -760 -5 -4 -238 23 -244 28 -2
2 17 174 42 383 33 280 41 381 32 386 -9 5 -144 21 -202 24 -5 0 -16 -20 -24
-45 -30 -90 -93 -157 -165 -175 -19 -5 -26 -12 -23 -22 4 -8 13 -115 21 -237
8 -121 16 -233 18 -248 2 -16 -1 -28 -8 -28 -6 0 -62 17 -125 38 l-115 39 -7
49 c-4 27 -11 118 -16 203 -9 145 -10 155 -33 172 -13 10 -30 18 -38 16 -8 -1
-37 -71 -73 -177 -32 -96 -61 -176 -63 -178 -3 -3 -224 66 -233 73 -4 4 317
955 323 955 1 0 81 -26 178 -59z m2462 -306 c62 -176 137 -388 167 -472 l55
-151 -116 -41 c-64 -22 -118 -37 -122 -33 -3 4 -27 66 -52 137 -25 72 -97 274
-160 450 -63 176 -117 328 -119 339 -2 15 15 25 102 56 58 21 111 37 118 36 9
-1 57 -123 127 -321z m-368 108 c11 -60 17 -110 12 -114 -5 -3 -79 -18 -164
-34 -116 -21 -154 -32 -151 -42 3 -7 8 -35 12 -62 3 -26 10 -54 14 -60 5 -10
39 -6 142 13 74 14 144 26 154 26 17 0 22 -14 38 -105 11 -58 17 -107 15 -110
-3 -2 -65 -16 -139 -30 -74 -14 -142 -29 -151 -33 -14 -6 -11 -29 21 -197 20
-104 34 -193 31 -196 -9 -10 -232 -51 -239 -45 -3 4 -47 226 -97 494 -81 429
-90 488 -76 494 9 4 115 26 236 49 121 23 236 45 255 49 68 15 64 18 87 -97z
m-706 -60 c0 -32 8 -259 17 -506 l17 -447 -45 0 c-25 0 -82 -3 -127 -7 l-83
-6 0 114 c0 63 -7 281 -15 484 -8 204 -15 380 -15 392 0 22 4 22 113 26 61 1
118 4 125 5 8 1 12 -15 13 -55z"/>
<path d="M12544 5115 c-27 -14 -64 -39 -82 -55 l-33 -30 177 -203 c98 -111
179 -204 181 -206 7 -9 85 75 109 116 15 25 28 65 31 97 5 49 2 64 -25 118
-79 161 -228 229 -358 163z"/>
<path d="M9038 4360 c-16 -48 -22 -82 -16 -86 5 -3 36 -8 69 -11 69 -7 95 9
105 63 7 40 -4 58 -55 83 -76 38 -74 39 -103 -49z"/>
<path d="M8002 6015 c-6 -14 -8 -25 -3 -25 8 0 23 41 17 47 -1 2 -8 -8 -14
-22z"/>
<path d="M5975 5959 c-7 -22 -60 -49 -96 -49 -11 0 -33 8 -47 18 -38 26 -52
34 -52 28 0 -2 16 -14 35 -26 19 -12 35 -25 35 -30 0 -4 -41 -24 -92 -45 l-91
-36 -26 19 c-19 14 -26 28 -26 53 0 29 5 37 35 51 l35 18 -37 0 c-44 0 -68
-27 -68 -78 0 -43 38 -82 79 -82 17 0 95 25 173 55 135 53 177 79 178 113 0
20 -28 14 -35 -9z"/>
<path d="M14470 5960 c11 -21 44 -43 53 -34 6 7 -41 54 -54 54 -6 0 -6 -7 1
-20z"/>
<path d="M14656 5935 c3 -22 10 -44 14 -49 5 -5 5 8 -1 30 -15 57 -20 64 -13
19z"/>
<path d="M14385 5825 c-28 -27 -37 -87 -10 -65 8 7 15 21 15 31 0 10 13 25 30
34 35 18 38 25 10 25 -12 0 -32 -11 -45 -25z"/>
<path d="M5850 5779 c-74 -33 -143 -70 -152 -82 -43 -54 -4 -137 64 -137 46 0
297 112 326 145 25 29 28 55 10 88 -33 63 -78 61 -248 -14z m217 4 c22 -34 4
-69 -49 -93 -45 -20 -46 -20 -122 27 -23 15 -35 28 -29 34 19 19 146 66 165
61 10 -2 26 -16 35 -29z m-169 -78 c28 -16 50 -34 49 -40 -2 -5 -43 -27 -91
-48 -83 -37 -88 -38 -112 -22 -58 38 -42 89 36 121 30 13 57 22 60 21 3 -1 29
-15 58 -32z"/>
<path d="M8318 5750 c-20 -44 -35 -80 -32 -80 2 0 22 36 43 80 22 44 36 80 33
80 -4 0 -24 -36 -44 -80z"/>
<path d="M12090 5822 c0 -5 12 -14 28 -20 15 -5 52 -20 82 -32 30 -12 51 -17
45 -12 -5 5 -37 19 -70 32 -33 13 -66 28 -72 33 -9 6 -13 6 -13 -1z"/>
<path d="M14542 5780 c-1 -8 5 -42 12 -75 8 -33 14 -49 14 -35 0 28 -25 133
-26 110z"/>
<path d="M5300 5706 c0 -2 -18 -55 -40 -118 -44 -125 -45 -126 62 28 55 78 56
82 35 88 -26 7 -57 8 -57 2z"/>
<path d="M5972 5570 c-151 -78 -182 -104 -182 -155 0 -38 46 -85 84 -85 33 0
277 127 309 161 43 47 34 105 -23 134 -16 8 -34 15 -40 15 -6 0 -72 -32 -148
-70z m190 13 c37 -33 19 -72 -49 -107 -32 -16 -34 -16 -94 14 -34 17 -59 33
-58 35 2 1 31 19 64 39 65 39 108 45 137 19z m-113 -137 c-8 -8 -46 -30 -84
-51 -80 -43 -117 -43 -137 0 -18 39 3 72 64 100 l51 24 60 -30 c50 -26 57 -33
46 -43z"/>
<path d="M15177 5630 c-21 -3 -38 -9 -39 -13 -1 -11 85 -129 107 -147 33 -27
37 4 9 81 -14 41 -29 76 -33 79 -3 3 -23 3 -44 0z"/>
<path d="M8645 5534 c-8 -47 -2 -52 11 -8 6 19 8 37 4 39 -4 3 -11 -11 -15
-31z"/>
<path d="M14446 5515 c4 -33 10 -64 14 -68 4 -5 3 18 -2 50 -12 80 -19 90 -12
18z"/>
<path d="M11822 5515 c43 -25 81 -45 85 -45 4 0 -26 20 -66 45 -40 25 -78 45
-84 45 -6 0 23 -20 65 -45z"/>
<path d="M8626 5444 c-4 -20 -5 -38 -3 -40 3 -3 8 11 11 32 4 20 5 38 3 40 -3
3 -8 -11 -11 -32z"/>
<path d="M6187 5425 c-76 -39 -259 -160 -267 -176 -17 -31 -11 -77 14 -105 41
-48 74 -40 225 56 73 46 139 92 147 104 23 33 17 74 -15 107 -33 32 -62 36
-104 14z m86 -47 c27 -36 12 -70 -42 -98 l-41 -20 -62 28 -62 28 74 47 c41 26
83 46 94 45 10 -2 28 -15 39 -30z m-133 -105 l44 -20 -76 -51 c-81 -55 -124
-65 -152 -36 -17 16 -21 51 -8 70 4 6 25 23 47 37 45 30 74 30 145 0z"/>
<path d="M9014 5336 c-3 -7 -4 -33 -2 -57 3 -43 4 -42 8 14 5 58 4 68 -6 43z"/>
<path d="M11475 5287 c39 -36 71 -64 73 -62 5 4 -118 120 -131 123 -7 2 20
-25 58 -61z"/>
<path d="M14321 5304 c1 -21 5 -52 9 -69 5 -19 6 -6 3 35 -6 73 -14 94 -12 34z"/>
<path d="M9002 5205 c0 -16 2 -22 5 -12 2 9 2 23 0 30 -3 6 -5 -1 -5 -18z"/>
<path d="M6220 5144 c-153 -101 -170 -118 -170 -165 0 -29 7 -43 31 -63 17
-14 41 -26 54 -26 28 0 289 170 304 199 19 34 13 80 -14 106 -42 43 -76 34
-205 -51z m182 29 c31 -28 23 -69 -19 -98 -21 -14 -46 -25 -55 -25 -19 0 -98
29 -111 40 -13 11 114 99 142 100 14 0 33 -7 43 -17z m-140 -115 c32 -11 55
-24 51 -29 -27 -25 -159 -109 -173 -109 -33 0 -61 30 -58 63 2 26 13 39 52 65
26 17 53 32 59 32 5 0 37 -10 69 -22z"/>
<path d="M9403 5140 c0 -30 2 -43 4 -27 2 15 2 39 0 55 -2 15 -4 2 -4 -28z"/>
<path d="M11030 5186 c0 -2 25 -35 55 -71 30 -37 55 -64 55 -61 0 4 -20 32
-45 63 -25 30 -45 59 -45 64 0 5 -4 9 -10 9 -5 0 -10 -2 -10 -4z"/>
<path d="M14203 5075 c0 -38 2 -53 4 -32 2 20 2 52 0 70 -2 17 -4 1 -4 -38z"/>
<path d="M9811 5059 c14 -63 20 -72 13 -19 -3 25 -10 49 -14 54 -5 4 -4 -11 1
-35z"/>
<path d="M10623 5093 c3 -5 26 -42 51 -83 25 -41 46 -70 46 -65 0 10 -90 155
-96 155 -3 0 -3 -3 -1 -7z"/>
<path d="M9412 5050 c0 -19 2 -27 5 -17 2 9 2 25 0 35 -3 9 -5 1 -5 -18z"/>
<path d="M10225 5043 c4 -10 16 -43 27 -73 11 -30 25 -59 30 -65 5 -5 -3 22
-18 60 -15 39 -27 76 -27 83 0 6 -5 12 -10 12 -5 0 -6 -8 -2 -17z"/>
<path d="M6455 5018 c-33 -19 -198 -140 -229 -167 -40 -37 -49 -65 -32 -105
15 -37 62 -62 98 -53 43 11 272 185 286 217 32 77 -51 149 -123 108z m77 -35
c37 -34 15 -89 -49 -122 -18 -9 -34 -7 -84 12 l-63 24 69 51 c72 55 97 62 127
35z m-135 -120 c29 -9 53 -20 53 -23 0 -12 -153 -120 -170 -120 -29 0 -60 30
-60 58 0 34 6 43 55 75 47 32 52 32 122 10z"/>
<path d="M9832 4975 c0 -11 3 -29 8 -40 11 -25 11 1 0 35 -6 20 -8 21 -8 5z"/>
<path d="M14063 4880 c0 -41 2 -58 4 -37 2 20 2 54 0 75 -2 20 -4 3 -4 -38z"/>
<path d="M6495 4734 c-66 -52 -126 -102 -132 -111 -22 -29 -16 -87 12 -113 48
-45 78 -35 216 74 68 53 130 110 138 126 27 56 -14 120 -78 120 -30 0 -55 -15
-156 -96z m205 34 c18 -33 11 -48 -41 -90 l-34 -27 -57 17 c-32 10 -60 21 -63
24 -3 3 22 29 56 57 73 61 112 66 139 19z m-146 -106 l59 -18 -64 -57 c-68
-61 -94 -73 -134 -63 -27 7 -41 42 -31 73 7 19 84 83 101 83 6 0 37 -8 69 -18z"/>
<path d="M13907 4686 c-4 -38 -6 -71 -3 -73 6 -7 19 101 14 123 -2 11 -7 -12
-11 -50z"/>
<path d="M6733 4591 c-32 -27 -91 -80 -130 -118 -65 -62 -73 -73 -73 -106 0
-52 35 -87 87 -87 34 0 50 11 158 110 66 60 123 117 126 127 15 36 8 65 -20
94 -44 44 -78 39 -148 -20z m130 -12 c24 -34 16 -61 -29 -95 l-34 -27 -68 15
-67 15 64 62 c72 69 100 75 134 30z m-85 -134 c4 -4 -23 -36 -61 -71 -72 -68
-104 -79 -139 -47 -36 32 -22 69 44 121 37 29 38 29 94 16 31 -7 59 -16 62
-19z"/>
<path d="M13756 4539 c-11 -69 -12 -99 -6 -99 4 0 10 28 13 62 6 68 2 91 -7
37z"/>
<path d="M6921 4454 c-17 -14 -74 -73 -126 -130 -106 -116 -115 -139 -69 -193
20 -24 34 -31 62 -31 34 0 46 9 145 112 128 133 145 163 122 212 -28 59 -85
71 -134 30z m87 -20 c34 -24 29 -70 -12 -109 -34 -32 -36 -32 -93 -23 -32 5
-62 10 -66 11 -11 3 83 112 108 125 28 15 37 14 63 -4z m-82 -144 c13 0 24 -4
24 -8 0 -4 -30 -40 -66 -80 -71 -78 -98 -88 -134 -52 -30 30 -25 56 22 106 41
44 44 46 87 40 24 -3 54 -6 67 -6z"/>
<path d="M13579 4363 c0 -10 -4 -40 -8 -66 -4 -26 -5 -44 -1 -40 9 10 24 123
16 123 -3 0 -6 -8 -7 -17z"/>
<path d="M7129 4297 c-26 -12 -205 -211 -227 -254 -19 -35 -14 -63 17 -94 31
-30 67 -37 101 -19 30 16 219 239 226 266 18 69 -53 130 -117 101z m75 -49
c23 -33 20 -50 -16 -92 l-33 -38 -69 9 -70 8 49 60 c27 33 53 63 59 67 23 16
65 8 80 -14z m-85 -137 c24 -6 23 -9 -40 -81 -67 -77 -98 -93 -131 -68 -9 7
-20 25 -23 40 -6 22 1 34 35 72 39 42 46 46 89 45 25 -1 57 -4 70 -8z"/>
<path d="M13401 4149 c-7 -33 -10 -63 -8 -65 2 -3 10 23 16 57 7 33 10 63 8
65 -2 3 -10 -23 -16 -57z"/>
<path d="M7308 4147 c-24 -11 -89 -86 -191 -220 -46 -61 -48 -97 -8 -138 31
-31 62 -36 97 -16 29 16 213 246 220 274 10 37 -15 84 -52 99 -39 16 -32 16
-66 1z m76 -49 c23 -32 20 -49 -15 -91 -32 -39 -62 -46 -138 -31 l-31 6 30 41
c57 77 79 97 110 97 19 0 34 -8 44 -22z m-65 -144 c9 -8 -112 -152 -131 -157
-22 -6 -58 8 -70 27 -17 24 -6 55 33 100 l41 47 62 -7 c33 -4 63 -8 65 -10z"/>
<path d="M13207 3989 c-10 -34 -16 -64 -13 -66 3 -3 10 14 16 37 6 23 16 53
20 66 5 13 6 24 2 24 -4 0 -15 -28 -25 -61z"/>
<path d="M7502 3992 c-48 -26 -212 -256 -212 -298 0 -82 92 -118 149 -58 48
49 191 255 191 274 0 35 -22 69 -55 85 -40 18 -33 19 -73 -3z m84 -47 c18 -28
13 -53 -23 -95 -23 -28 -30 -30 -89 -30 -35 0 -64 4 -64 8 0 11 79 125 94 134
24 16 66 8 82 -17z m-65 -152 c-5 -10 -31 -47 -58 -83 -39 -53 -54 -66 -79
-68 -37 -4 -64 19 -64 52 0 13 16 44 35 70 l36 46 70 0 c63 0 69 -2 60 -17z"/>
<path d="M13004 3829 c-12 -32 -18 -59 -14 -59 7 0 44 110 38 115 -2 2 -13
-23 -24 -56z"/>
<path d="M7715 3872 c-32 -7 -45 -21 -123 -142 -90 -138 -105 -171 -93 -202
24 -63 102 -83 145 -37 48 50 176 266 176 295 0 54 -53 97 -105 86z m57 -49
c25 -22 23 -52 -7 -96 -22 -31 -32 -37 -63 -38 l-37 -2 33 -6 33 -6 -53 -85
c-47 -76 -57 -85 -86 -88 -68 -7 -82 50 -32 124 27 38 36 44 68 46 37 1 37 1
5 5 l-33 4 19 37 c11 20 33 56 50 80 34 46 70 55 103 25z"/>
<path d="M12699 3867 c-26 -20 -41 -57 -35 -83 4 -14 11 -22 15 -19 5 3 7 13
4 23 -6 23 33 72 57 72 10 0 22 5 25 10 9 14 -47 12 -66 -3z"/>
<path d="M7871 3733 c-41 -38 -161 -271 -161 -312 0 -71 93 -109 143 -58 13
12 53 79 90 150 78 149 84 181 36 221 -39 33 -71 33 -108 -1z m93 -29 c22 -21
20 -49 -5 -94 -20 -35 -25 -38 -81 -44 -33 -4 -63 -5 -66 -2 -7 7 36 101 61
133 22 27 68 31 91 7z m-42 -161 c-5 -10 -18 -36 -28 -58 -38 -83 -63 -115
-91 -115 -35 0 -63 27 -63 59 0 14 14 47 30 73 26 42 34 47 72 51 93 8 89 8
80 -10z"/>
<path d="M12811 3704 c-11 -31 -21 -61 -21 -67 1 -7 12 17 26 52 13 35 23 66
21 68 -2 2 -14 -22 -26 -53z"/>
<path d="M12475 3725 c-33 -32 -33 -79 1 -128 32 -47 45 -41 15 6 -25 40 -27
89 -5 107 25 22 75 16 96 -10 22 -27 35 -21 17 8 -29 46 -88 54 -124 17z"/>
<path d="M8110 3627 c-30 -15 -170 -283 -170 -326 0 -61 65 -104 123 -80 24
10 42 38 103 162 41 82 74 156 74 164 0 27 -28 69 -55 81 -32 15 -44 15 -75
-1z m87 -53 c16 -25 16 -28 -8 -73 -23 -45 -26 -46 -89 -58 -36 -6 -66 -10
-68 -9 -4 4 57 138 70 153 6 7 26 13 44 13 25 0 38 -7 51 -26z m-47 -144 c0
-6 -16 -46 -36 -89 -40 -88 -66 -109 -109 -89 -39 18 -43 53 -10 115 23 45 32
53 64 59 20 3 41 7 46 9 22 7 45 4 45 -5z"/>
<path d="M12275 3615 c-14 -13 -25 -35 -25 -49 0 -27 79 -196 92 -196 4 0 24
30 44 66 24 43 41 63 50 60 8 -3 14 -2 14 3 0 18 -63 122 -80 131 -32 17 -70
11 -95 -15z m103 -17 c44 -48 45 -72 5 -144 l-36 -67 -38 74 c-44 85 -47 111
-19 139 26 26 62 25 88 -2z"/>
<path d="M12587 3563 c-15 -37 -25 -68 -23 -70 2 -2 16 26 31 62 16 36 26 67
24 69 -2 3 -17 -25 -32 -61z"/>
<path d="M8325 3531 c-12 -5 -26 -15 -32 -22 -22 -27 -133 -292 -133 -319 0
-39 44 -80 86 -80 51 0 77 33 144 185 65 149 70 184 32 219 -23 20 -70 28 -97
17z m77 -48 c23 -21 23 -33 -3 -87 -19 -39 -27 -45 -63 -50 -23 -4 -51 -9 -63
-13 -31 -7 -29 5 11 93 33 70 37 74 67 74 18 0 41 -7 51 -17z m-38 -165 c-24
-78 -65 -155 -88 -168 -23 -13 -29 -13 -53 0 -37 21 -40 57 -9 118 23 46 29
51 73 60 79 16 85 15 77 -10z"/>
<path d="M12065 3515 c-14 -13 -25 -36 -25 -51 0 -27 120 -308 128 -300 2 3
-4 28 -14 57 l-19 51 32 56 c17 31 36 58 42 60 6 2 21 -19 33 -47 11 -28 25
-51 29 -51 12 0 14 -4 -36 111 -25 57 -55 112 -66 122 -30 25 -75 22 -104 -8z
m92 -10 c13 -9 28 -33 34 -54 11 -36 9 -43 -20 -95 -18 -31 -37 -56 -42 -56
-12 0 -69 128 -69 156 0 28 32 64 58 64 10 0 27 -7 39 -15z"/>
<path d="M11861 3439 c-32 -13 -50 -38 -51 -71 0 -15 25 -93 57 -173 47 -122
61 -149 85 -161 16 -8 38 -12 53 -8 29 7 65 48 65 75 0 10 -25 87 -57 170 -52
141 -59 152 -89 165 -19 8 -35 14 -36 13 -2 0 -14 -5 -27 -10z m78 -44 c37
-48 36 -78 -5 -139 -20 -31 -40 -53 -44 -51 -12 8 -60 133 -60 157 0 56 73 78
109 33z m80 -189 c17 -43 31 -88 31 -99 0 -32 -29 -57 -66 -57 -38 0 -55 20
-75 87 -12 41 -11 44 27 102 21 33 42 57 45 53 4 -4 20 -42 38 -86z"/>
<path d="M8532 3418 c-23 -26 -132 -294 -132 -328 0 -32 53 -80 89 -80 52 0
77 34 137 191 60 156 63 180 24 219 -28 28 -90 27 -118 -2z m107 -40 c14 -25
14 -31 -6 -72 -19 -39 -28 -47 -65 -56 -24 -6 -51 -13 -60 -16 -12 -4 -18 0
-18 10 0 24 41 129 58 149 24 27 73 19 91 -15z m-37 -150 c-3 -12 -18 -54 -32
-93 -32 -82 -61 -107 -104 -87 -38 17 -42 52 -13 115 24 53 26 55 83 70 33 8
62 15 66 16 3 1 4 -9 0 -21z"/>
<path d="M11628 3354 c-53 -28 -50 -65 24 -271 36 -99 47 -120 71 -131 51 -25
117 13 117 67 0 14 -23 93 -51 174 -45 127 -56 150 -80 163 -35 17 -47 17 -81
-2z m86 -29 c9 -9 21 -33 27 -54 11 -37 10 -41 -31 -96 -36 -48 -44 -55 -52
-41 -16 28 -48 128 -48 149 0 48 70 76 104 42z m80 -207 c25 -70 29 -91 21
-115 -9 -24 -17 -28 -51 -31 -48 -3 -55 4 -78 75 l-17 52 38 55 c21 30 42 54
47 52 5 -1 23 -41 40 -88z"/>
<path d="M8766 3338 c-17 -17 -37 -65 -70 -170 -25 -80 -46 -155 -46 -167 0
-11 11 -32 24 -48 30 -35 95 -39 125 -8 23 24 111 290 111 335 0 70 -90 106
-144 58z m92 -24 c25 -18 28 -50 8 -98 -12 -28 -24 -37 -75 -54 -73 -25 -73
-23 -41 82 26 84 59 105 108 70z m-18 -176 c-39 -167 -65 -203 -126 -176 -34
16 -40 50 -17 111 19 51 22 53 84 74 35 12 65 22 65 23 1 0 -2 -15 -6 -32z"/>
<path d="M8984 3277 c-22 -19 -32 -46 -60 -168 -18 -79 -33 -156 -34 -171 0
-42 40 -82 84 -82 63 0 80 28 120 202 21 88 34 163 30 178 -8 32 -50 64 -85
64 -15 0 -40 -10 -55 -23z m92 -30 c26 -23 27 -25 15 -74 -7 -29 -18 -54 -24
-56 -7 -3 -36 -14 -65 -26 l-53 -21 6 37 c15 89 36 144 58 153 32 13 33 12 63
-13z m-6 -156 c0 -34 -35 -169 -48 -183 -17 -21 -72 -24 -90 -6 -15 15 -15 46
-1 105 11 41 17 48 63 69 55 25 76 29 76 15z"/>
<path d="M11373 3275 c-35 -25 -34 -61 8 -200 62 -203 63 -205 133 -205 38 0
76 36 76 71 0 36 -88 310 -106 330 -21 23 -80 26 -111 4z m87 -15 c19 -10 40
-59 40 -92 0 -19 -68 -117 -82 -118 -10 0 -48 120 -48 154 0 53 44 81 90 56z
m85 -220 c27 -84 28 -94 14 -118 -16 -30 -56 -40 -87 -23 -12 6 -26 34 -36 70
l-17 60 43 55 c23 30 45 53 48 51 3 -2 19 -45 35 -95z"/>
<path d="M9231 3213 c-25 -25 -32 -44 -55 -163 -30 -158 -32 -202 -9 -225 38
-39 96 -41 129 -4 10 11 28 75 45 156 40 195 39 222 -12 248 -41 22 -65 18
-98 -12z m95 -28 c14 -14 23 -32 20 -40 -2 -7 -8 -29 -11 -48 -6 -31 -13 -37
-68 -61 -33 -14 -62 -25 -63 -23 -2 2 3 39 10 82 10 59 19 84 36 97 30 24 46
23 76 -7z m-20 -253 c-23 -109 -61 -138 -112 -86 -27 26 -27 25 -3 115 8 31
16 39 66 61 54 23 58 23 61 6 2 -10 -4 -53 -12 -96z"/>
<path d="M11152 3220 c-29 -27 -28 -69 3 -211 43 -189 48 -199 115 -199 35 0
80 38 80 67 0 10 -14 85 -32 168 -24 114 -37 155 -55 172 -28 29 -81 30 -111
3z m105 -26 c6 -9 15 -33 18 -55 6 -35 3 -43 -36 -89 -23 -27 -45 -50 -49 -50
-10 0 -31 76 -37 135 -5 47 -3 54 18 69 27 19 67 14 86 -10z m42 -161 c36
-136 37 -157 11 -183 -47 -47 -103 -8 -115 81 -7 50 -6 52 36 95 24 24 47 44
51 44 4 0 12 -17 17 -37z"/>
<path d="M9483 3190 c-12 -5 -28 -19 -37 -32 -15 -24 -56 -257 -56 -322 0 -75
79 -112 136 -63 23 20 29 39 50 163 30 176 30 205 2 232 -28 25 -66 34 -95 22z
m82 -54 c13 -20 14 -31 5 -68 -10 -40 -17 -47 -67 -72 -30 -15 -58 -24 -61
-21 -9 9 14 154 28 170 20 24 77 19 95 -9z m-19 -223 c-13 -100 -32 -133 -73
-133 -28 0 -63 33 -62 58 0 9 6 38 12 65 11 45 15 49 72 76 33 15 61 28 62 27
1 -1 -4 -43 -11 -93z"/>
<path d="M10893 3164 c-29 -29 -29 -14 5 -242 22 -141 35 -164 96 -164 41 0
71 21 80 56 3 12 -5 93 -19 181 -20 136 -27 162 -45 177 -33 27 -86 23 -117
-8z m102 -19 c19 -18 25 -34 25 -67 -1 -39 -6 -47 -50 -86 -55 -48 -51 -51
-70 55 -12 67 -5 93 28 112 27 16 41 13 67 -14z m45 -191 c25 -133 14 -174
-47 -174 -37 0 -59 31 -66 93 l-7 56 47 45 c27 25 51 46 54 46 4 0 12 -30 19
-66z"/>
<path d="M9718 3149 c-29 -17 -37 -41 -53 -170 -22 -181 -21 -213 11 -238 51
-41 126 -18 138 41 7 31 36 282 36 308 0 33 -44 70 -82 70 -18 0 -41 -5 -50
-11z m86 -35 c16 -16 22 -78 10 -109 -4 -9 -34 -30 -67 -46 l-59 -31 7 79 c3
43 13 88 21 101 17 26 65 30 88 6z m-2 -249 c-11 -95 -24 -117 -68 -117 -44 0
-67 36 -59 92 10 70 12 73 73 107 41 23 58 28 60 18 2 -7 -1 -53 -6 -100z"/>
<path d="M10659 3147 c-37 -28 -40 -49 -24 -204 17 -167 26 -196 61 -212 31
-14 47 -14 77 0 44 20 48 45 32 215 -8 86 -20 164 -25 175 -20 37 -87 52 -121
26z m94 -35 c12 -10 17 -30 17 -62 0 -44 -3 -49 -50 -89 -60 -50 -63 -47 -64
72 -1 76 1 82 23 93 26 13 46 9 74 -14z m37 -226 c9 -76 9 -92 -5 -112 -23
-35 -69 -36 -97 -2 -13 14 -18 37 -18 76 0 54 2 57 48 98 26 23 50 39 54 36 4
-4 12 -47 18 -96z"/>
<path d="M9939 3121 c-21 -17 -25 -30 -31 -108 -3 -48 -7 -128 -7 -176 -1 -81
1 -90 24 -112 35 -36 86 -34 118 4 22 27 24 39 31 192 7 151 6 164 -12 188
-25 34 -88 41 -123 12z m97 -27 c18 -18 24 -32 20 -47 -3 -12 -6 -32 -6 -45 0
-16 -15 -32 -55 -57 -30 -19 -57 -35 -60 -35 -3 0 -5 36 -5 80 0 73 3 83 25
105 31 32 50 31 81 -1z m14 -220 c0 -110 -16 -144 -69 -144 -52 0 -71 45 -55
130 5 24 19 40 58 66 28 18 54 33 59 33 4 1 7 -38 7 -85z"/>
<path d="M10166 3117 c-26 -26 -26 -27 -26 -189 0 -143 2 -167 19 -195 24 -39
67 -51 110 -28 17 8 33 26 37 39 3 14 4 97 2 185 -3 181 -9 196 -80 208 -30 4
-41 1 -62 -20z m92 -23 c18 -12 22 -25 22 -67 -1 -51 -2 -53 -53 -90 -62 -45
-65 -41 -66 70 -1 63 2 74 21 87 12 9 29 16 38 16 9 0 26 -7 38 -16z m31 -256
c1 -65 -2 -81 -19 -98 -24 -24 -57 -26 -82 -3 -14 12 -18 31 -18 82 l1 66 52
38 c52 37 52 38 59 15 3 -13 6 -58 7 -100z"/>
<path d="M10410 3113 c-21 -26 -22 -35 -16 -138 12 -196 17 -227 42 -252 30
-30 75 -30 111 1 27 24 28 26 25 118 -6 181 -18 260 -42 280 -35 28 -94 24
-120 -9z m100 -11 c13 -11 23 -33 27 -62 6 -43 5 -45 -48 -92 -36 -31 -56 -43
-60 -35 -4 7 -10 44 -14 84 -7 68 -6 73 19 97 30 31 46 32 76 8z m39 -279 c1
-69 -13 -93 -56 -93 -46 0 -63 26 -63 96 l0 62 53 42 52 42 7 -44 c3 -23 7
-71 7 -105z"/>
</g>
</svg>
