<?xml version="1.0" standalone="no"?>
<!DOCTYPE svg PUBLIC "-//W3C//DTD SVG 20010904//EN"
 "http://www.w3.org/TR/2001/REC-SVG-20010904/DTD/svg10.dtd">
<svg version="1.0" xmlns="http://www.w3.org/2000/svg"
 width="500.000000pt" height="500.000000pt" viewBox="0 0 500.000000 500.000000"
 preserveAspectRatio="xMidYMid meet">

<g transform="translate(0.000000,500.000000) scale(0.100000,-0.100000)"
fill="#000000" stroke="none">
<path d="M2285 4146 c-316 -53 -576 -186 -800 -411 -125 -124 -219 -256 -289
-405 -71 -154 -77 -140 61 -140 65 0 201 -3 303 -6 l185 -7 63 82 c82 105 190
192 317 252 144 68 212 83 380 84 114 0 155 -4 220 -22 203 -56 369 -167 488
-325 l52 -71 205 6 c113 4 249 7 304 7 l98 0 -7 28 c-13 52 -94 210 -156 302
-77 115 -226 271 -339 355 -155 117 -367 212 -565 256 -117 26 -403 34 -520
15z m168 -128 c6 -40 2 -48 -24 -48 -23 0 -23 -2 -4 -155 8 -65 14 -120 12
-121 -1 -1 -21 -5 -44 -9 -50 -8 -47 -15 -64 153 l-13 122 -25 -2 c-23 -3 -26
1 -29 33 l-3 37 78 9 c43 6 85 11 94 12 12 1 18 -9 22 -31z m183 18 c1 0 -4
-79 -9 -173 l-11 -173 -49 0 -49 0 6 43 c3 23 8 98 12 167 3 69 7 130 9 137 2
7 18 9 47 6 24 -3 43 -6 44 -7z m249 -48 c4 -4 4 -20 0 -37 -6 -27 -10 -31
-37 -28 -26 2 -32 -2 -39 -25 -5 -19 -3 -28 4 -28 28 -1 39 -18 32 -48 -6 -28
-10 -31 -34 -26 -27 6 -28 4 -41 -54 -17 -82 -18 -83 -68 -70 -32 8 -41 15
-38 27 3 9 21 81 41 161 20 80 37 150 39 156 4 11 127 -13 141 -28z m-754 -18
c37 -20 61 -93 44 -132 -5 -13 -3 -18 9 -18 11 0 26 -20 41 -55 41 -91 41 -99
2 -113 -18 -7 -36 -12 -39 -12 -3 0 -16 28 -28 63 -24 64 -36 84 -45 75 -4 -4
17 -73 40 -130 5 -13 -2 -21 -30 -32 -21 -9 -40 -16 -44 -16 -13 0 -124 321
-115 330 11 11 111 48 132 49 7 1 22 -4 33 -9z m906 -34 c21 -11 21 -12 -44
-171 -36 -88 -67 -161 -68 -162 -5 -8 -85 32 -82 42 3 6 33 79 67 163 68 165
64 161 127 128z m216 -119 c27 -18 27 -19 10 -48 -20 -34 -21 -34 -50 -14 -21
15 -23 14 -36 -12 -13 -24 -13 -28 6 -44 20 -16 20 -17 4 -43 -18 -27 -32 -33
-42 -16 -10 17 -24 11 -42 -16 -17 -26 -16 -27 10 -48 l26 -21 -22 -29 -23
-28 -61 38 c-42 27 -60 44 -57 54 3 8 44 76 92 152 l87 137 35 -21 c19 -12 47
-30 63 -41z m-1389 23 c17 -30 17 -31 -5 -48 -19 -16 -20 -21 -8 -40 8 -12 20
-20 26 -17 7 3 19 7 27 11 7 3 21 -7 31 -22 17 -26 17 -27 -5 -44 -22 -16 -22
-18 -5 -43 20 -31 23 -32 52 -12 20 14 23 13 43 -16 12 -16 21 -32 19 -33 -14
-12 -120 -76 -126 -76 -13 0 -198 293 -187 297 5 2 32 19 59 38 28 18 52 34
55 34 3 1 14 -13 24 -29z m1618 -228 c17 -28 18 -37 8 -62 -17 -41 -186 -200
-212 -200 -11 0 -48 27 -85 63 l-64 62 126 124 126 124 40 -39 c22 -21 49 -54
61 -72z m-1804 39 c22 -16 43 -34 46 -39 3 -5 -9 -23 -27 -40 l-33 -32 -29 30
c-27 28 -55 40 -55 23 0 -13 154 -163 167 -163 20 0 16 11 -14 42 l-27 28 32
33 33 32 34 -37 c47 -51 46 -85 -1 -138 -30 -33 -43 -40 -75 -40 -34 0 -47 9
-127 85 -50 47 -93 96 -96 110 -14 55 51 135 110 135 12 0 39 -13 62 -29z"/>
<path d="M2071 3870 c11 -31 29 -41 29 -16 0 25 -12 46 -26 46 -10 0 -11 -6
-3 -30z"/>
<path d="M3316 3531 c-45 -45 -74 -81 -67 -85 12 -8 161 131 161 150 0 25 -14
15 -94 -65z"/>
<path d="M2485 3510 c-10 -32 -34 -50 -68 -50 l-31 0 28 -29 c24 -25 27 -35
22 -65 -8 -41 -6 -42 34 -21 27 14 33 14 60 0 39 -20 40 -20 33 21 -5 29 -1
40 22 65 l29 29 -31 0 c-34 0 -58 18 -68 50 -3 11 -10 20 -15 20 -5 0 -12 -9
-15 -20z"/>
<path d="M2210 3428 c-8 -17 -24 -29 -42 -33 l-30 -7 22 -23 c15 -16 19 -29
14 -49 -6 -26 8 -37 22 -15 6 11 32 9 67 -6 16 -6 17 -4 11 19 -5 20 -1 33 16
51 l22 23 -31 7 c-19 4 -37 17 -45 33 l-14 27 -12 -27z"/>
<path d="M2759 3427 c-8 -17 -20 -27 -34 -27 -32 0 -38 -11 -14 -28 17 -12 20
-21 14 -49 l-6 -34 28 14 c25 13 32 13 56 0 l28 -14 -6 34 c-5 24 -2 37 9 46
23 19 20 31 -9 31 -14 0 -25 4 -25 8 0 5 -6 17 -14 27 -14 19 -15 19 -27 -8z"/>
<path d="M787 2986 c-94 -34 -102 -58 -102 -301 0 -190 1 -202 23 -236 31 -51
80 -72 153 -67 68 5 105 27 131 79 15 29 18 63 18 222 0 201 -6 233 -51 274
-23 20 -87 43 -119 43 -8 -1 -32 -7 -53 -14z m81 -281 c3 -194 0 -225 -23
-225 -13 0 -15 31 -15 206 0 190 1 205 18 202 15 -3 17 -21 20 -183z"/>
<path d="M1570 2991 c-84 -17 -110 -55 -110 -158 0 -88 16 -117 105 -185 54
-42 71 -61 76 -87 8 -40 -4 -81 -25 -81 -18 0 -26 22 -26 76 l0 44 -65 0 -65
0 0 -52 c0 -100 51 -158 143 -166 65 -5 116 10 148 44 18 19 24 39 27 89 2 36
1 81 -2 100 -9 44 -60 102 -127 145 -49 32 -64 57 -57 101 2 16 10 24 23 24
16 0 21 -8 23 -42 l3 -43 65 0 64 0 0 45 c0 65 -21 109 -61 127 -44 20 -96 27
-139 19z"/>
<path d="M2242 2970 c-18 -11 -37 -32 -43 -48 -16 -39 -14 -154 3 -186 8 -15
48 -53 89 -84 l74 -58 0 -54 c0 -48 -2 -55 -20 -55 -17 0 -20 8 -23 58 l-3 57
-66 0 -66 0 5 -68 c3 -37 11 -77 18 -89 23 -37 82 -63 142 -63 104 0 158 55
158 160 0 108 -21 143 -132 220 -50 35 -53 38 -53 81 0 33 4 45 17 47 13 2 18
-7 23 -42 l7 -46 66 0 65 0 -7 62 c-9 94 -52 128 -158 128 -45 0 -72 -6 -96
-20z"/>
<path d="M3040 2977 c-13 -7 -35 -28 -48 -47 -20 -30 -23 -44 -20 -98 3 -46 9
-68 25 -83 l20 -21 -22 -22 c-41 -41 -40 -231 2 -279 42 -47 138 -61 212 -31
52 21 71 51 78 128 8 87 -4 153 -32 182 l-23 23 24 22 c20 19 24 32 24 81 0
74 -20 122 -59 142 -36 19 -145 21 -181 3z m108 -141 c4 -67 -11 -93 -34 -62
-14 20 -19 82 -8 111 4 9 14 15 23 13 12 -2 17 -17 19 -62z m0 -269 c2 -73 0
-88 -14 -94 -25 -9 -34 15 -34 98 0 79 4 92 30 87 12 -3 16 -21 18 -91z"/>
<path d="M3412 2970 c-55 -34 -62 -65 -62 -287 0 -173 2 -203 18 -232 24 -45
74 -71 137 -71 63 0 114 25 140 70 18 32 20 52 20 235 0 183 -2 203 -20 235
-12 19 -36 43 -55 52 -49 25 -136 24 -178 -2z m116 -283 c2 -184 1 -208 -14
-214 -9 -3 -20 0 -25 8 -10 16 -12 378 -3 404 4 9 14 15 23 13 14 -3 16 -29
19 -211z"/>
<path d="M3792 2970 c-55 -34 -62 -65 -62 -286 0 -183 1 -199 22 -235 26 -47
70 -69 140 -69 63 0 109 24 135 72 16 29 18 59 18 233 0 223 -4 242 -64 282
-46 31 -141 32 -189 3z m113 -285 c0 -185 -2 -210 -16 -213 -25 -5 -29 26 -29
213 0 187 4 218 29 213 14 -3 16 -28 16 -213z"/>
<path d="M1070 2685 l0 -295 75 0 75 0 0 125 c0 118 1 125 20 125 19 0 20 -7
20 -125 l0 -125 70 0 70 0 0 295 0 295 -70 0 -70 0 0 -105 c0 -98 -1 -105 -20
-105 -19 0 -20 7 -20 105 l0 105 -75 0 -75 0 0 -295z"/>
<path d="M1851 2788 c-12 -106 -28 -239 -35 -295 l-13 -103 73 0 73 0 6 55 c7
49 10 55 31 55 21 0 24 -5 24 -39 0 -67 4 -71 81 -71 46 0 69 4 69 12 0 15
-70 527 -76 556 -4 21 -9 22 -107 22 l-103 0 -23 -192z m148 -140 c1 -43 -1
-48 -20 -48 -21 0 -21 3 -15 73 4 39 10 90 14 112 7 39 7 38 13 -25 4 -36 7
-86 8 -112z"/>
<path d="M2788 2946 c-21 -18 -56 -39 -78 -46 -36 -12 -40 -17 -40 -45 0 -30
3 -33 41 -38 22 -3 44 -8 47 -12 4 -4 8 -99 10 -211 l3 -204 65 0 64 0 0 295
0 295 -37 0 c-28 -1 -48 -9 -75 -34z"/>
<path d="M4196 2945 c-21 -19 -54 -39 -72 -45 -30 -10 -34 -16 -34 -46 0 -30
3 -34 26 -34 14 0 34 -5 45 -10 18 -10 19 -23 19 -215 l0 -205 70 0 70 0 0
295 0 295 -42 0 c-34 -1 -51 -8 -82 -35z"/>
<path d="M665 2159 l100 -48 3 41 c2 26 -2 44 -10 49 -7 5 -53 8 -103 8 l-90
-1 100 -49z"/>
<path d="M1156 2202 c-6 -11 47 -132 93 -211 203 -346 535 -596 915 -686 599
-143 1199 91 1548 603 60 89 153 276 143 291 -4 8 -104 11 -313 11 l-307 0
-47 -60 c-87 -108 -233 -213 -369 -264 -223 -84 -489 -71 -702 34 -111 54
-207 128 -281 217 l-61 73 -307 -1 c-169 0 -309 -3 -312 -7z m2267 -230 c108
-107 109 -117 31 -201 l-56 -61 -128 123 -129 122 52 53 c89 92 103 89 230
-36z m-1644 84 c65 -34 81 -103 36 -161 -36 -48 -51 -52 -81 -25 -31 30 -30
40 6 75 32 31 38 45 18 45 -14 0 -168 -149 -168 -162 0 -15 18 -8 48 17 l29
24 26 -27 c15 -16 27 -33 27 -39 0 -18 -75 -63 -104 -63 -42 0 -106 67 -106
111 0 28 13 46 93 126 100 100 119 108 176 79z m1345 -156 c17 -30 17 -31 -5
-48 -19 -16 -20 -21 -10 -41 8 -13 18 -20 27 -17 8 3 20 9 28 12 9 4 20 -5 30
-24 15 -28 14 -31 -6 -44 -22 -15 -22 -16 -4 -42 12 -19 22 -26 34 -21 39 16
48 15 64 -12 l16 -28 -56 -37 c-31 -21 -62 -38 -68 -38 -9 0 -147 204 -188
277 -4 7 16 27 51 52 32 22 60 40 63 40 3 1 14 -13 24 -29z m-1141 -16 c31
-19 57 -39 57 -42 0 -4 -9 -18 -20 -32 -17 -23 -21 -24 -41 -11 -20 12 -24 11
-40 -10 -18 -23 -18 -24 1 -38 24 -16 25 -24 4 -56 -15 -23 -17 -23 -39 -9
-21 14 -23 13 -39 -10 -20 -32 -20 -34 5 -55 18 -15 19 -20 8 -44 -7 -15 -16
-27 -22 -27 -11 0 -127 71 -127 78 0 10 182 292 189 292 4 0 32 -16 64 -36z
m1021 -222 c36 -85 66 -155 66 -156 0 -6 -80 -39 -84 -35 -6 8 -137 322 -134
323 36 19 75 32 80 27 4 -3 36 -75 72 -159z m-834 130 c48 -20 67 -34 74 -53
12 -35 -12 -110 -40 -124 -17 -8 -19 -14 -10 -28 8 -13 5 -34 -15 -89 -28 -77
-30 -78 -85 -58 l-24 9 26 72 c15 42 22 75 17 80 -6 6 -19 -18 -33 -58 -12
-38 -26 -71 -29 -75 -10 -11 -81 13 -81 27 0 10 35 113 102 298 12 33 16 33
98 -1z m654 -34 c12 -45 7 -58 -19 -58 -25 0 -29 -9 -19 -46 4 -16 12 -19 33
-16 24 3 29 0 34 -25 6 -34 2 -43 -24 -43 -23 0 -23 0 -4 -70 8 -30 15 -60 15
-67 0 -11 -78 -39 -85 -31 -4 4 -78 309 -79 327 -1 12 79 41 135 50 4 1 9 -9
13 -21z m-391 -24 c37 -3 67 -10 67 -14 0 -4 -3 -21 -6 -37 -5 -25 -10 -29
-30 -25 -13 2 -24 0 -24 -4 -1 -32 -30 -268 -34 -271 -9 -10 -86 9 -86 21 0
10 7 76 25 224 4 39 3 42 -20 42 -22 0 -25 5 -25 33 0 42 7 49 40 43 14 -3 55
-8 93 -12z m191 -16 c3 -13 7 -63 11 -113 3 -49 8 -120 11 -157 l7 -68 -46 0
c-45 0 -45 0 -51 38 -3 20 -8 82 -11 137 -3 55 -8 117 -11 137 -5 34 -4 37 23
41 57 8 63 7 67 -15z"/>
<path d="M3257 1983 c-2 -5 33 -43 79 -87 103 -96 112 -79 12 21 -72 72 -83
80 -91 66z"/>
<path d="M2146 1722 c-3 -5 -10 -21 -15 -36 -8 -20 -8 -26 3 -26 8 0 17 14 21
31 7 31 2 48 -9 31z"/>
<path d="M4250 2196 c-12 -12 -13 -63 -2 -69 4 -3 48 15 97 39 l90 43 -88 -2
c-48 -1 -92 -6 -97 -11z"/>
<path d="M2173 2111 c6 -28 3 -39 -15 -58 l-21 -23 26 0 c20 0 33 -9 46 -30
l18 -31 13 31 c10 24 18 30 43 30 l30 0 -22 24 c-18 19 -22 31 -16 56 l7 32
-31 -16 c-29 -15 -33 -15 -58 1 l-26 18 6 -34z"/>
<path d="M2724 2113 c5 -22 2 -34 -13 -47 -24 -22 -19 -36 13 -36 15 0 27 -9
35 -27 12 -27 13 -27 27 -8 8 10 14 22 14 27 0 4 11 8 24 8 34 0 40 14 15 36
-15 13 -18 25 -14 46 7 31 -1 35 -29 13 -16 -12 -23 -12 -48 1 l-30 16 6 -29z"/>
<path d="M2436 2064 c5 -30 2 -40 -21 -64 l-28 -29 41 -7 c32 -5 43 -12 52
-35 7 -16 16 -29 20 -29 4 0 13 13 20 29 9 23 20 30 52 35 l41 7 -28 29 c-23
24 -27 35 -22 64 7 41 6 41 -33 21 -27 -14 -33 -14 -60 0 -40 21 -42 20 -34
-21z"/>
<path d="M3547 1205 c-4 -8 -3 -16 1 -19 4 -3 9 4 9 15 2 23 -3 25 -10 4z"/>
<path d="M3533 1165 c0 -8 4 -12 9 -9 5 3 6 10 3 15 -9 13 -12 11 -12 -6z"/>
<path d="M3430 1148 c-16 -7 -20 -12 -12 -15 8 -3 21 2 30 11 19 18 17 19 -18
4z"/>
<path d="M3349 1132 c12 -8 11 -11 -3 -15 -15 -4 -15 -5 1 -3 19 1 21 19 1 24
-10 3 -10 1 1 -6z"/>
<path d="M3468 1123 c7 -3 16 -2 19 1 4 3 -2 6 -13 5 -11 0 -14 -3 -6 -6z"/>
<path d="M3150 1088 c0 -9 7 -19 16 -22 15 -6 15 -4 3 11 -7 10 -15 20 -16 22
-2 2 -3 -3 -3 -11z"/>
<path d="M3097 1048 c-12 -25 -22 -35 -32 -32 -14 6 -20 -6 -16 -29 1 -5 -8
-11 -19 -14 -23 -6 -27 -23 -5 -23 8 0 15 -7 15 -15 0 -8 4 -15 8 -15 5 0 6
14 4 31 -4 25 -2 30 9 24 11 -7 12 -6 2 6 -11 14 -9 16 17 14 16 -1 27 2 24 7
-3 4 -3 17 1 27 5 16 16 19 43 12 1 -1 -2 -11 -8 -23 -11 -22 -10 -22 4 -4 12
14 13 23 5 33 -6 7 -15 11 -19 8 -5 -3 -10 3 -12 12 -2 13 -8 7 -21 -19z"/>
<path d="M2973 989 c-30 -9 -46 -29 -23 -29 6 0 10 5 10 10 0 6 14 10 30 10
17 0 30 5 30 10 0 12 -4 11 -47 -1z"/>
<path d="M2878 963 c6 -2 18 -2 25 0 6 3 1 5 -13 5 -14 0 -19 -2 -12 -5z"/>
<path d="M3075 960 c-3 -5 -1 -10 4 -10 6 0 11 5 11 10 0 6 -2 10 -4 10 -3 0
-8 -4 -11 -10z"/>
<path d="M2970 946 c0 -8 -10 -17 -22 -19 -14 -3 -8 -5 15 -6 35 -1 37 1 27
19 -13 24 -20 26 -20 6z"/>
<path d="M2645 931 c-3 -5 0 -13 6 -17 8 -5 9 -3 4 6 -6 10 -4 12 9 7 10 -4
15 -3 11 3 -8 13 -22 13 -30 1z"/>
<path d="M2597 899 c7 -7 15 -10 18 -7 3 3 -2 9 -12 12 -14 6 -15 5 -6 -5z"/>
</g>
</svg>
